<svg width="45" height="31" viewBox="0 0 45 31" fill="none" xmlns="http://www.w3.org/2000/svg">
<path d="M8.55534 6.50179C8.61206 6.53149 8.62286 6.53149 8.64717 6.49099C8.67417 6.44778 8.72549 6.44238 9.10359 6.44238C9.42228 6.44238 9.53301 6.45048 9.54111 6.47749C9.54651 6.49639 9.63024 6.51799 9.76257 6.53149C9.88141 6.54229 10.1245 6.5828 10.3081 6.6179C10.4891 6.65571 10.7753 6.72861 10.9428 6.78262C11.1075 6.83663 11.3965 6.94734 11.5829 7.02835C11.7692 7.10936 12.0231 7.23087 12.15 7.29838C12.277 7.36588 12.5065 7.4982 12.6632 7.59001C12.8198 7.68452 13.1061 7.87354 13.2978 8.00855C13.4923 8.14627 13.7948 8.3785 13.973 8.52161C14.1513 8.66743 14.443 8.91855 14.6212 9.08057C14.7995 9.24259 15.1154 9.55312 15.3234 9.76645C15.5314 9.98247 15.823 10.3038 15.9716 10.4793C16.1201 10.6575 16.3362 10.9249 16.4469 11.0734C16.5603 11.2219 16.7575 11.5027 16.8844 11.6945C17.0114 11.8889 17.2004 12.2048 17.3057 12.3965C17.4111 12.591 17.5515 12.8691 17.6163 13.0176C17.6811 13.1661 17.7784 13.4091 17.8297 13.5577C17.881 13.7062 17.9539 13.9546 17.9917 14.1112C18.0295 14.2678 18.0808 14.5217 18.1025 14.6783C18.1241 14.8349 18.1511 15.1184 18.1619 15.3129C18.1727 15.5073 18.1889 15.6774 18.1997 15.6909C18.2105 15.7044 18.2105 15.8583 18.197 16.0284C18.1835 16.1986 18.1403 16.4848 18.1052 16.663C18.07 16.8412 18.0079 17.0951 17.9701 17.2301C17.9296 17.3651 17.8459 17.6081 17.7838 17.7701C17.7189 17.9348 17.5758 18.2508 17.4624 18.4722C17.3489 18.6963 17.1734 19.0069 17.0735 19.1689C16.9708 19.3282 16.7764 19.6144 16.6414 19.8034C16.5036 19.9925 16.3038 20.249 16.1984 20.3759C16.0931 20.5028 15.8743 20.754 15.7123 20.9376C15.5503 21.1185 15.4017 21.267 15.3855 21.267C15.3666 21.267 15.1668 21.4533 14.5321 22.0906L13.1385 20.754C12.3715 20.0195 11.7422 19.4119 11.7422 19.4038C11.7449 19.3957 11.8016 19.3417 11.8719 19.2823C11.9421 19.2229 12.1257 19.0528 12.2797 18.9043C12.4309 18.7557 12.5578 18.6207 12.5551 18.6072C12.5551 18.5937 12.6254 18.5019 12.7091 18.4047C12.7955 18.3075 12.9467 18.1266 13.044 17.9997C13.1439 17.8727 13.2897 17.6675 13.3735 17.5406C13.4545 17.4137 13.5841 17.1842 13.6597 17.0275C13.7327 16.8709 13.8245 16.6522 13.8623 16.5415C13.8974 16.4308 13.9487 16.2418 13.9757 16.1229C14.0081 15.9744 14.0216 15.7854 14.0216 15.5289C14.0216 15.2724 14.0081 15.0806 13.9757 14.9348C13.9487 14.816 13.892 14.6135 13.8488 14.4839C13.8056 14.3516 13.7111 14.1274 13.6381 13.9843C13.5652 13.8385 13.4221 13.5928 13.3194 13.4362C13.2168 13.2795 13.0359 13.0365 12.9197 12.8961C12.8009 12.7557 12.5848 12.5126 12.4336 12.3587C12.2851 12.2048 12.0231 11.9591 11.8529 11.8106C11.6828 11.6621 11.3965 11.4433 11.2183 11.3245C11.04 11.203 10.7618 11.041 10.5971 10.9627C10.4351 10.8844 10.2082 10.7899 10.0975 10.7521C9.98673 10.717 9.79768 10.6656 9.67885 10.6386C9.53841 10.6089 9.33586 10.5927 9.09819 10.5927C8.84432 10.59 8.66337 10.6062 8.50403 10.6386C8.37709 10.6656 8.18264 10.7197 8.07191 10.7548C7.96118 10.7926 7.76132 10.8736 7.62629 10.9357C7.49395 10.9978 7.28059 11.1139 7.15366 11.1922C7.02672 11.2705 6.81607 11.419 6.68103 11.5189C6.54869 11.6216 6.31103 11.8187 6.15439 11.9564C5.99774 12.0968 5.8519 12.2183 5.8303 12.2264C5.80869 12.2345 5.68176 12.3614 5.54672 12.5072C5.41438 12.6558 5.24964 12.8394 5.06059 13.0554L3.87226 11.9213C3.21868 11.2975 2.60291 10.7062 2.31934 10.4253L2.71094 10.0014C2.927 9.76645 3.10255 9.56123 3.10255 9.54772C3.10255 9.53422 3.31321 9.3263 3.56978 9.09137C3.82365 8.85375 4.19365 8.52971 4.3854 8.37309C4.57985 8.21648 4.86883 7.99235 5.03358 7.87894C5.19562 7.76553 5.45759 7.59271 5.61424 7.5009C5.77088 7.40639 6.04095 7.25787 6.2165 7.16876C6.38935 7.08235 6.65132 6.96354 6.79716 6.90413C6.9403 6.84743 7.15636 6.76912 7.27519 6.73131C7.39402 6.69081 7.59388 6.6341 7.72081 6.6071C7.84775 6.5774 8.07191 6.53419 8.22045 6.50989C8.44461 6.47479 8.50133 6.47209 8.55534 6.50179Z" fill="#00C0FF"/>
<path d="M1.7494 11.1221C1.81692 11.0357 1.96816 10.8467 2.087 10.7036C2.20583 10.5578 2.30576 10.439 2.31116 10.439C2.31656 10.439 2.94043 11.0276 5.07401 13.0583L4.93628 13.2419C4.86065 13.3418 4.73102 13.5389 4.6473 13.6793C4.56357 13.8197 4.49335 13.9656 4.49065 14.0034C4.48795 14.0412 4.43664 14.1978 4.37722 14.3544C4.31781 14.511 4.24219 14.7621 4.21248 14.9161C4.17197 15.1078 4.15576 15.2941 4.15576 15.529C4.15576 15.7558 4.17197 15.953 4.20978 16.1312C4.23678 16.2743 4.2935 16.4849 4.33401 16.5956C4.37182 16.7064 4.45824 16.9062 4.52036 17.0412C4.58518 17.1762 4.73642 17.43 4.85255 17.6083C4.97139 17.7865 5.16854 18.0538 5.29277 18.2023C5.41701 18.3508 5.66548 18.6182 5.84372 18.7964C6.02467 18.9746 6.29205 19.223 6.43789 19.3445C6.58643 19.4688 6.8349 19.6551 6.99154 19.7604C7.14818 19.8657 7.39395 20.0088 7.53979 20.0817C7.68293 20.1546 7.90709 20.2491 8.03942 20.295C8.16906 20.3383 8.38242 20.3923 8.51746 20.4166C8.65249 20.4382 8.89556 20.4571 9.0576 20.4571C9.21965 20.4571 9.46271 20.4382 9.59775 20.4166C9.73279 20.3923 9.96235 20.3329 10.1109 20.2842C10.2594 20.2329 10.4593 20.1546 10.5565 20.106C10.6537 20.0574 10.7618 20.0169 10.7996 20.0142C10.8374 20.0115 11.0075 19.917 11.1777 19.8036C11.3478 19.6902 11.5423 19.5552 11.7313 19.4094L12.9332 20.5543C13.5948 21.1861 14.2214 21.7856 14.5131 22.0745L14.4456 22.1475C14.4078 22.1853 14.2322 22.3392 14.054 22.4877C13.8757 22.6362 13.7164 22.7793 13.7029 22.8063C13.6894 22.8333 13.5975 22.9143 13.5003 22.9899C13.4031 23.0629 13.1789 23.2195 13.0007 23.3383C12.8224 23.4571 12.5794 23.611 12.4605 23.6785C12.3417 23.746 12.0689 23.8864 11.8529 23.9918C11.6368 24.0971 11.2803 24.2429 11.0562 24.3158C10.8347 24.3914 10.4998 24.4805 10.3134 24.5183C10.1271 24.5561 9.85702 24.5993 9.71388 24.6128C9.56804 24.629 9.31417 24.6425 9.15213 24.6425C8.99008 24.6425 8.73621 24.629 8.59308 24.6128C8.44724 24.5993 8.17986 24.5561 7.99891 24.5183C7.81526 24.4832 7.52898 24.4103 7.36424 24.3563C7.19679 24.3023 6.93212 24.2078 6.77548 24.143C6.61884 24.0809 6.36767 23.9648 6.21643 23.8891C6.06248 23.8135 5.81402 23.6785 5.66277 23.5867C5.50883 23.4949 5.32518 23.368 5.24956 23.3032C5.17664 23.2384 4.94168 23.0575 4.73102 22.9008C4.51766 22.7442 4.17197 22.4688 3.96131 22.2879C3.75065 22.1042 3.36985 21.7478 3.11598 21.4967C2.86211 21.2456 2.53262 20.8972 2.38408 20.7271C2.23554 20.557 2.03568 20.3194 1.94116 20.2005C1.84663 20.0817 1.70619 19.917 1.63057 19.836C1.55225 19.755 1.3875 19.5309 1.26057 19.3364C1.13364 19.142 0.958087 18.8504 0.866262 18.6884C0.777138 18.5264 0.636699 18.2401 0.555677 18.0538C0.474655 17.8675 0.358523 17.5596 0.296406 17.3652C0.234289 17.1708 0.153267 16.8684 0.118157 16.6902C0.080347 16.5119 0.0371352 16.1771 0.01823 15.9476C-0.00607666 15.6262 -0.00607666 15.4345 0.01823 15.124C0.0344344 14.9026 0.0749455 14.5839 0.107354 14.4219C0.137063 14.2599 0.204581 13.9872 0.255895 13.8224C0.307209 13.655 0.396333 13.3958 0.45575 13.2473C0.515166 13.0988 0.631298 12.8395 0.715021 12.6748C0.798744 12.5074 0.941883 12.2482 1.03101 12.0996C1.12013 11.9511 1.27948 11.7054 1.3848 11.5542C1.49013 11.4003 1.59006 11.2761 1.60356 11.2761C1.61977 11.2761 1.68459 11.2058 1.7494 11.1221Z" fill="#008EFF"/>
<path d="M31.1661 11.8244C31.2309 11.7893 31.3579 11.7515 31.447 11.7407C31.5361 11.7272 31.663 11.7218 31.7306 11.7272C31.7981 11.7353 31.9061 11.7569 31.9736 11.7785C32.0411 11.8001 32.1438 11.8541 32.2005 11.9027C32.2572 11.9513 32.3355 12.0458 32.3733 12.1133C32.4273 12.2051 32.4462 12.2834 32.4544 12.4373C32.4652 12.5859 32.4544 12.6804 32.4192 12.7884C32.3841 12.891 32.3301 12.9747 32.2464 13.0584C32.16 13.1448 32.0762 13.1961 31.9736 13.2285C31.8872 13.2555 31.7414 13.2744 31.6225 13.2744C31.5118 13.2744 31.3768 13.2636 31.3254 13.2474C31.2741 13.2339 31.1715 13.1826 31.0986 13.134C31.0068 13.0746 30.9392 12.9963 30.8825 12.8964C30.8231 12.7884 30.7988 12.702 30.7907 12.5724C30.7826 12.4589 30.7934 12.3428 30.8204 12.2483C30.8447 12.1673 30.9041 12.0512 30.9554 11.9918C31.0041 11.9324 31.0986 11.8568 31.1661 11.8244Z" fill="white"/>
<path d="M27.3229 14.8784C27.3202 13.3473 27.3283 12.0863 27.3419 12.0782C27.3554 12.0674 27.6767 12.062 28.7462 12.0728L28.7732 17.9054L28.8354 18.0324C28.8732 18.1134 28.9326 18.1863 28.9974 18.2268C29.0514 18.2619 29.1649 18.3078 29.2459 18.324C29.3269 18.3429 29.5078 18.351 29.8941 18.3375V19.5121L29.7941 19.5283C29.7374 19.5364 29.6483 19.5553 29.597 19.5715C29.5349 19.5904 29.3674 19.5931 29.1108 19.5796C28.8948 19.5688 28.6166 19.5391 28.4897 19.5121C28.3627 19.4878 28.1872 19.4338 28.0981 19.3933C28.0089 19.3501 27.8685 19.2529 27.7875 19.1746C27.7065 19.0963 27.6065 18.9721 27.566 18.9019C27.5255 18.8289 27.4688 18.6723 27.4364 18.5535C27.4067 18.4347 27.3689 18.1863 27.3554 18C27.3392 17.8109 27.3256 16.4392 27.3229 14.8784Z" fill="white"/>
<path d="M39.6977 19.5121V15.7857V12.0593H41.1291L41.1426 16.1584L43.1547 13.8685H44.8021L44.7562 13.9306C44.7292 13.9657 44.2647 14.495 43.7218 15.1079C43.179 15.7209 42.7334 16.234 42.728 16.2475C42.7253 16.261 43.2303 16.9846 43.8515 17.8568C44.4726 18.7317 44.9885 19.4608 44.9993 19.477C45.0155 19.504 44.8426 19.5094 43.3356 19.4986L42.5497 18.3807C42.1176 17.765 41.7503 17.2601 41.7368 17.2547C41.7233 17.252 41.5801 17.3924 41.1291 17.8919V19.5121H39.6977Z" fill="white"/>
<path d="M22.7722 13.8928C22.9072 13.8469 23.1233 13.7929 23.2502 13.774C23.3772 13.7551 23.5716 13.7389 23.6824 13.7362C23.7931 13.7335 23.9929 13.747 24.128 13.7632C24.263 13.7794 24.4872 13.8226 24.6276 13.8577C24.768 13.8928 24.9706 13.963 25.0732 14.0143C25.1759 14.0656 25.3514 14.1763 25.4621 14.2654C25.5729 14.3519 25.7187 14.4896 25.7835 14.5706C25.8483 14.6516 25.9429 14.792 25.9915 14.8811C26.0428 14.9702 26.113 15.1349 26.1508 15.2457C26.1859 15.3564 26.2345 15.5238 26.2886 15.7857H24.8572L24.7735 15.6021C24.7248 15.5022 24.6384 15.3564 24.5763 15.2781C24.5034 15.1862 24.417 15.1133 24.3251 15.0674C24.2306 15.0215 24.1064 14.9891 23.9605 14.9729C23.8201 14.9567 23.6661 14.9594 23.5473 14.9756C23.4447 14.9891 23.2934 15.0269 23.2178 15.0539C23.1395 15.0836 23.0072 15.1565 22.9261 15.2187C22.8451 15.2781 22.7344 15.3915 22.6831 15.4698C22.6291 15.5454 22.5588 15.6885 22.5264 15.7857C22.494 15.8829 22.4535 16.0692 22.4373 16.2043C22.4184 16.3474 22.413 16.6093 22.4211 16.8388C22.4319 17.0981 22.4562 17.3033 22.494 17.4464C22.5237 17.5652 22.5832 17.7299 22.621 17.8109C22.6615 17.8919 22.7641 18.0243 22.8451 18.1053C22.9261 18.1836 23.0666 18.2835 23.1557 18.3267C23.2448 18.3699 23.4096 18.4158 23.5203 18.4347C23.6364 18.4509 23.7958 18.4563 23.8984 18.4455C23.9956 18.4347 24.1415 18.3996 24.2225 18.3699C24.3116 18.3348 24.4305 18.2565 24.5196 18.1728C24.6006 18.0972 24.7059 17.9622 24.7545 17.8757C24.8032 17.7893 24.841 17.6948 24.8437 17.6678C24.8437 17.6246 24.8977 17.6219 25.5729 17.6219C26.2535 17.6219 26.3021 17.6246 26.2913 17.6678C26.2859 17.6948 26.2724 17.765 26.2616 17.8244C26.2535 17.8838 26.221 18.0108 26.1886 18.108C26.1589 18.2052 26.0968 18.3564 26.0509 18.4455C26.0077 18.5346 25.9186 18.675 25.8564 18.756C25.7943 18.837 25.6701 18.9721 25.581 19.0531C25.4891 19.1341 25.3406 19.2475 25.2461 19.3042C25.1516 19.3582 24.9436 19.4473 24.7843 19.4986C24.606 19.5553 24.3845 19.6039 24.2171 19.6228C24.0605 19.6417 23.8012 19.6471 23.6283 19.639C23.4582 19.6282 23.2259 19.6039 23.1152 19.5796C23.0045 19.558 22.8343 19.5121 22.7371 19.4797C22.6399 19.45 22.4886 19.3879 22.3995 19.342C22.3104 19.2988 22.1645 19.2124 22.0754 19.153C21.9863 19.0909 21.8404 18.9694 21.7486 18.8803C21.6595 18.7884 21.5218 18.6183 21.4461 18.4995C21.3678 18.3807 21.2679 18.1863 21.222 18.0675C21.1761 17.9487 21.1058 17.7164 21.068 17.5544C21.0032 17.2817 20.9978 17.2088 20.9951 16.6498C20.9951 16.2448 21.0059 15.9882 21.0302 15.8802C21.0491 15.7911 21.0923 15.6399 21.1221 15.5427C21.1518 15.4455 21.222 15.2808 21.2733 15.1781C21.3246 15.0755 21.411 14.9216 21.4677 14.8406C21.5218 14.7596 21.6325 14.6192 21.7135 14.5328C21.7945 14.4464 21.9323 14.3222 22.0214 14.26C22.1105 14.1952 22.2591 14.1061 22.3536 14.0602C22.4454 14.0143 22.6345 13.9387 22.7722 13.8928Z" fill="white"/>
<path d="M35.3495 13.8388C35.4603 13.8091 35.6304 13.7767 35.7276 13.7632C35.8249 13.7497 35.995 13.7389 36.1058 13.7362C36.2165 13.7362 36.4163 13.747 36.5514 13.7632C36.6864 13.7794 36.8809 13.8145 36.9835 13.8415C37.0861 13.8685 37.2509 13.9198 37.3481 13.9603C37.4453 13.9981 37.5885 14.071 37.6695 14.1196C37.7478 14.1655 37.899 14.2843 38.0017 14.3816C38.107 14.4788 38.2447 14.6354 38.3096 14.7326C38.3717 14.8298 38.45 14.9621 38.4797 15.0296C38.5094 15.0971 38.5634 15.2538 38.5985 15.3807C38.6363 15.5076 38.6715 15.6507 38.6985 15.7857H37.2671L37.1671 15.5751C37.1023 15.4401 37.0159 15.3159 36.9187 15.2133C36.7944 15.089 36.7377 15.0512 36.6054 15.0134C36.5082 14.9864 36.3461 14.9675 36.2003 14.9675C36.0652 14.9648 35.8897 14.981 35.8087 14.9999C35.7276 15.0215 35.5764 15.0809 35.4738 15.1349C35.3711 15.1889 35.2388 15.2862 35.1794 15.3537C35.1173 15.4212 35.0336 15.5481 34.993 15.6372C34.9525 15.7263 34.8985 15.891 34.8742 16.0017C34.8391 16.1638 34.8337 16.315 34.8445 16.7578C34.8553 17.1629 34.8688 17.3546 34.9039 17.4734C34.9282 17.5625 34.9876 17.7137 35.0336 17.8082C35.093 17.9297 35.174 18.0297 35.2955 18.1404C35.4036 18.2376 35.5251 18.3186 35.6142 18.3537C35.6898 18.3807 35.8438 18.4185 35.9518 18.4374C36.0976 18.459 36.1976 18.459 36.3569 18.4374C36.4731 18.4185 36.627 18.3726 36.708 18.3321C36.7836 18.2943 36.9106 18.1998 36.9835 18.1242C37.0672 18.0378 37.1509 17.9162 37.2806 17.6219H37.9882C38.6471 17.6219 38.6985 17.6246 38.6985 17.6678C38.6985 17.6948 38.6796 17.7947 38.6579 17.8919C38.6336 17.9892 38.5904 18.135 38.5607 18.216C38.5283 18.297 38.477 18.4185 38.4419 18.486C38.4095 18.5535 38.3177 18.6858 38.242 18.783C38.1637 18.8803 38.026 19.0234 37.9342 19.1017C37.8423 19.18 37.6749 19.2907 37.5641 19.3474C37.4534 19.4068 37.2644 19.4824 37.1455 19.5202C37.0267 19.558 36.8106 19.6012 36.6675 19.6174C36.5217 19.6336 36.3137 19.6471 36.2084 19.6471C36.1003 19.6471 35.9086 19.6336 35.7817 19.6174C35.6547 19.6039 35.4603 19.5661 35.3495 19.5391C35.2388 19.5094 35.0606 19.4527 34.9579 19.4095C34.8553 19.369 34.6771 19.2745 34.5663 19.2016C34.4556 19.1314 34.2855 18.9991 34.1909 18.9073C34.0964 18.8154 33.9587 18.6507 33.883 18.54C33.8074 18.4293 33.7102 18.2592 33.667 18.162C33.6238 18.0648 33.5509 17.846 33.5076 17.6759C33.4617 17.4896 33.4185 17.2196 33.3996 17.0008C33.378 16.7308 33.378 16.5418 33.3996 16.2718C33.4158 16.0719 33.4536 15.81 33.486 15.6912C33.5157 15.5724 33.5968 15.3591 33.6643 15.2187C33.7318 15.0782 33.8398 14.8892 33.9046 14.8001C33.9695 14.711 34.1045 14.5571 34.2071 14.4572C34.3071 14.36 34.4637 14.233 34.5528 14.1763C34.6419 14.1223 34.8121 14.0332 34.9309 13.9846C35.0498 13.9333 35.2388 13.8685 35.3495 13.8388Z" fill="white"/>
<path d="M30.8933 19.5121V16.6903V13.8685H32.3247V19.5121H30.8933Z" fill="white"/>
</svg>
