<svg width="32" height="32" viewBox="0 0 32 32" fill="none" xmlns="http://www.w3.org/2000/svg">
<path fill-rule="evenodd" clip-rule="evenodd" d="M9.05703 9.05718C9.57773 8.53648 10.4219 8.53648 10.9426 9.05718L15.9998 14.1144L21.057 9.05718C21.5777 8.53648 22.4219 8.53648 22.9426 9.05718C23.4633 9.57788 23.4633 10.4221 22.9426 10.9428L17.8855 16L22.9426 21.0572C23.4633 21.5779 23.4633 22.4221 22.9426 22.9428C22.4219 23.4635 21.5777 23.4635 21.057 22.9428L15.9998 17.8856L10.9426 22.9428C10.4219 23.4635 9.57773 23.4635 9.05703 22.9428C8.53633 22.4221 8.53633 21.5779 9.05703 21.0572L14.1142 16L9.05703 10.9428C8.53633 10.4221 8.53633 9.57788 9.05703 9.05718Z" fill="white"/>
</svg>
