<svg width="26" height="24" viewBox="0 0 26 24" fill="none" xmlns="http://www.w3.org/2000/svg">
<g clip-path="url(#clip0_272_544)">
<path fill-rule="evenodd" clip-rule="evenodd" d="M12.9534 0.00600988C13.6674 0.00132238 14.044 0.0216349 14.5362 0.0935099C14.8893 0.145072 15.3862 0.232572 15.6377 0.285697C15.8877 0.340385 16.3581 0.470072 16.6799 0.573197C17.0018 0.676322 17.5081 0.865385 17.8049 0.99351C18.1018 1.12007 18.544 1.33726 18.7893 1.47476C19.0346 1.61382 19.4237 1.84976 19.6565 2.00288C19.8877 2.15601 20.2893 2.44976 20.5471 2.65757C20.8049 2.86695 21.2534 3.27632 21.5424 3.56851C21.8315 3.86226 22.2112 4.28101 22.3862 4.49976C22.5627 4.71851 22.8456 5.10913 23.0159 5.36695C23.1877 5.62476 23.4252 6.01538 23.5456 6.23413C23.6674 6.45288 23.8768 6.8857 24.0143 7.19507C24.1518 7.50445 24.3471 8.02164 24.4502 8.34351C24.5534 8.66538 24.6815 9.12945 24.7346 9.37476C24.7877 9.62007 24.8737 10.1201 24.9268 10.4888C24.9956 10.9576 25.0237 11.3966 25.0237 11.9654C25.0237 12.4232 24.9924 13.0169 24.9518 13.3357C24.9112 13.6451 24.8268 14.156 24.7643 14.4732C24.7002 14.7888 24.5424 15.3685 24.4127 15.7623C24.2831 16.1544 24.0237 16.7935 23.8362 17.1794C23.6487 17.5669 23.3612 18.0935 23.2002 18.3513C23.0377 18.6091 22.7612 19.0091 22.5846 19.2419C22.4096 19.4732 22.1002 19.8435 21.8987 20.0623C21.6971 20.281 21.3409 20.6373 21.1096 20.8529C20.8768 21.0685 20.4877 21.3966 20.2424 21.581C19.9971 21.7654 19.6065 22.0341 19.3752 22.1779C19.1424 22.3216 18.7737 22.5326 18.5549 22.6482C18.3362 22.7638 17.9565 22.9451 17.7112 23.0482C17.4659 23.1529 17.0018 23.3232 16.6799 23.4263C16.3581 23.5294 15.8877 23.6591 15.6362 23.7138C15.3862 23.7669 14.8893 23.8544 14.5346 23.906C14.0752 23.9732 13.6424 23.9998 13.0237 23.9998C12.3862 23.9998 11.9831 23.9748 11.5002 23.9029C11.1393 23.8498 10.644 23.7638 10.3987 23.7107C10.1534 23.6591 9.63618 23.5123 9.25024 23.3841C8.86274 23.256 8.22993 22.9966 7.84399 22.8091C7.45649 22.6232 6.95024 22.3513 6.71899 22.2076C6.48618 22.0638 6.10649 21.8044 5.87524 21.6294C5.64243 21.456 5.36899 21.2404 5.26587 21.1513C5.16274 21.0623 4.85024 20.7638 4.57056 20.4904C4.29087 20.2169 3.90024 19.7919 3.70181 19.5466C3.50337 19.3013 3.20181 18.8904 3.03149 18.6326C2.86118 18.3748 2.61587 17.9732 2.48931 17.7419C2.36118 17.5091 2.16587 17.1201 2.05649 16.8748C1.94556 16.6294 1.75493 16.1232 1.63149 15.7498C1.50806 15.3763 1.36431 14.8701 1.31274 14.6248C1.25962 14.3794 1.17368 13.8794 1.12056 13.5107C1.05181 13.0419 1.02368 12.6029 1.02368 12.0341C1.02368 11.5763 1.05493 10.9826 1.09556 10.6638C1.13618 10.3544 1.22056 9.84351 1.28306 9.52632C1.34712 9.2107 1.50181 8.64195 1.62681 8.2607C1.75337 7.88101 1.95493 7.3482 2.07681 7.07788C2.19868 6.80757 2.42524 6.36382 2.58149 6.09351C2.73618 5.8232 3.00337 5.40132 3.17368 5.15601C3.34399 4.9107 3.63306 4.53101 3.81587 4.31226C3.99868 4.09351 4.36899 3.6982 4.63618 3.43413C4.90493 3.17163 5.30493 2.81226 5.52368 2.63726C5.74243 2.4607 6.13306 2.17788 6.39087 2.00757C6.64868 1.83726 7.04868 1.59195 7.28149 1.46538C7.51274 1.33726 7.90337 1.14195 8.14868 1.03257C8.39399 0.921635 8.90024 0.73101 9.27368 0.607572C9.64712 0.484135 10.1643 0.338822 10.4221 0.284135C10.6799 0.229447 11.144 0.146635 11.4534 0.0981974C11.8456 0.0372599 12.2987 0.00913488 12.9534 0.00600988ZM12.4377 5.37163C12.2315 5.41382 11.9049 5.49976 11.7112 5.56226C11.5174 5.62476 11.1487 5.77945 10.8909 5.90601C10.6331 6.03101 10.2424 6.27007 10.0237 6.4357C9.80493 6.60132 9.47993 6.89195 9.30337 7.08257C9.12681 7.2732 8.86118 7.60913 8.71431 7.82788C8.56743 8.04663 8.37212 8.38413 8.27993 8.57788C8.18618 8.77164 8.05024 9.10289 7.97681 9.31538L7.84399 9.70288C6.53462 9.70288 6.28462 9.72007 6.19243 9.76695C6.12056 9.80132 6.04712 9.86538 6.02837 9.90757C6.00806 9.94976 5.99243 10.2638 5.99087 10.606C5.98931 11.2138 5.99243 11.2294 6.11274 11.3435C6.22837 11.456 6.26274 11.4607 6.88618 11.4732L7.53931 11.4841L7.51587 12.2107C6.19556 12.256 6.16743 12.2623 6.07993 12.3748C5.99868 12.4779 5.98931 12.5669 5.99087 13.1138C5.99243 13.7123 5.99712 13.7388 6.10962 13.8513C6.22524 13.9669 6.23774 13.9685 7.00024 13.9685H7.77368C7.92212 14.4951 8.02837 14.806 8.10337 14.9998C8.17993 15.1935 8.35024 15.5404 8.48306 15.7732C8.61431 16.0044 8.85493 16.3638 9.01431 16.5701C9.17524 16.7763 9.43149 17.0591 9.58306 17.1982C9.73462 17.3373 9.98618 17.5404 10.1409 17.6513C10.2956 17.7623 10.6112 17.9466 10.844 18.0638C11.0752 18.1794 11.4549 18.3373 11.6877 18.4154C11.919 18.4919 12.2737 18.5888 12.4737 18.6294C12.6721 18.6701 13.0518 18.7263 13.3174 18.7544C13.5893 18.7826 14.0206 18.7919 14.3127 18.7748C14.5956 18.7576 15.0081 18.7123 15.2268 18.6748C15.4456 18.6373 15.794 18.5623 16.0002 18.5076C16.2065 18.4529 16.5643 18.3357 16.7971 18.2451C17.0284 18.156 17.2877 18.0326 17.3721 17.9701C17.4799 17.8919 17.5315 17.8091 17.5518 17.6841C17.5737 17.5529 17.5487 17.4248 17.4518 17.1794C17.3799 16.9982 17.2346 16.6607 17.1284 16.4294C17.0206 16.1951 16.8831 15.9716 16.819 15.9248C16.7549 15.8794 16.6346 15.8435 16.5518 15.8435C16.4674 15.8435 16.0659 15.9279 15.6612 16.0294C15.2549 16.131 14.7643 16.2388 14.5706 16.2685C14.3627 16.3013 13.9487 16.3138 13.5627 16.2998C13.0377 16.281 12.8252 16.2529 12.4971 16.1544C12.2706 16.0857 12.0065 15.9904 11.9112 15.9419C11.8143 15.8935 11.6081 15.7591 11.4534 15.6435C11.2987 15.5294 11.0706 15.2998 10.9471 15.1357C10.8221 14.9701 10.6502 14.6873 10.5643 14.5076C10.4784 14.3263 10.3956 14.1326 10.3799 14.0748L10.3518 13.9685H13.4502C13.6752 13.7388 13.6799 13.7107 13.6799 13.1013C13.6799 12.4888 13.6768 12.4654 13.5627 12.3513L13.4456 12.2341H10.0706V11.4841L13.4534 11.4607C13.6737 11.2091 13.6799 11.1701 13.6815 10.5826C13.6831 9.9732 13.6799 9.95757 13.5596 9.84351L13.4377 9.72632L10.4456 9.67945C10.8034 9.04351 11.0112 8.76695 11.1971 8.58101C11.3659 8.4107 11.6299 8.20757 11.7831 8.12632C11.9362 8.04663 12.2002 7.9357 12.3674 7.88257C12.5346 7.82945 12.7987 7.76382 12.9534 7.7357C13.1081 7.70913 13.4659 7.68726 13.7502 7.68726C14.0331 7.6857 14.4549 7.71851 14.6877 7.75913C14.919 7.79976 15.394 7.90445 15.7424 7.99351C16.0909 8.08257 16.4549 8.15601 16.5518 8.15601C16.6674 8.15601 16.7674 8.12007 16.8456 8.05132C16.9096 7.99195 17.0799 7.68101 17.2237 7.35913C17.3674 7.03726 17.5081 6.68882 17.5362 6.5857C17.5768 6.43726 17.5737 6.36382 17.5206 6.23726C17.4831 6.14976 17.3799 6.02788 17.2893 5.96851C17.1987 5.9107 16.9565 5.79976 16.7502 5.72476C16.544 5.6482 16.1956 5.54038 15.9768 5.48413C15.7581 5.42788 15.3987 5.35132 15.1799 5.31382C14.9612 5.27788 14.5065 5.23882 14.1721 5.22788C13.8362 5.21695 13.394 5.22788 13.1877 5.25132C12.9815 5.27476 12.644 5.32945 12.4377 5.37163Z" fill="white"/>
</g>
<defs>
<clipPath id="clip0_272_544">
<rect width="24.0469" height="24" fill="white" transform="translate(0.976807)"/>
</clipPath>
</defs>
</svg>
