<svg width="24" height="25" viewBox="0 0 24 25" fill="none" xmlns="http://www.w3.org/2000/svg">
<g clip-path="url(#clip0_34_1133)">
<path d="M24 12.4424C24 5.81496 18.6274 0.442383 12 0.442383C5.37258 0.442383 0 5.81496 0 12.4424C0 18.4318 4.3882 23.3964 10.125 24.2966V15.9111H7.07812V12.4424H10.125V9.79863C10.125 6.79113 11.9166 5.12988 14.6576 5.12988C15.9701 5.12988 17.3438 5.36426 17.3438 5.36426V8.31738H15.8306C14.34 8.31738 13.875 9.24246 13.875 10.1924V12.4424H17.2031L16.6711 15.9111H13.875V24.2966C19.6118 23.3964 24 18.4318 24 12.4424Z" fill="white"/>
</g>
<defs>
<clipPath id="clip0_34_1133">
<rect width="24" height="24" fill="white" transform="translate(0 0.442383)"/>
</clipPath>
</defs>
</svg>
