<svg width="32" height="32" viewBox="0 0 32 32" fill="none" xmlns="http://www.w3.org/2000/svg">
<path d="M18.666 25.3333V9.33333M18.666 25.3333H21.3327M18.666 25.3333H11.9993M18.666 9.33333C18.666 6.38781 16.2782 4 13.3327 4H7.99935C5.05383 4 2.66602 6.38781 2.66602 9.33333V20C2.66602 22.487 4.36824 24.5764 6.67114 25.1666M18.666 9.33333H22.9448C23.6223 9.33333 24.2744 9.5912 24.7687 10.0546L28.4899 13.5432C29.0276 14.0473 29.3327 14.7515 29.3327 15.4886V22.6667C29.3327 24.1394 28.1388 25.3333 26.666 25.3333M26.666 25.3333C26.666 26.8061 25.4721 28 23.9993 28C22.5266 28 21.3327 26.8061 21.3327 25.3333M26.666 25.3333C26.666 23.8606 25.4721 22.6667 23.9993 22.6667C22.5266 22.6667 21.3327 23.8606 21.3327 25.3333M11.9993 25.3333C11.9993 26.8061 10.8054 28 9.33268 28C7.85992 28 6.66602 26.8061 6.66602 25.3333C6.66602 25.2773 6.66774 25.2218 6.67114 25.1666M11.9993 25.3333C11.9993 23.8606 10.8054 22.6667 9.33268 22.6667C7.91591 22.6667 6.75719 23.7715 6.67114 25.1666" stroke="#15181E"/>
<path d="M13.3327 10.6666H10.666" stroke="#15181E" stroke-width="1.5" stroke-linecap="round" stroke-linejoin="round"/>
<path d="M13.3333 16L8 16" stroke="#15181E" stroke-linecap="round" stroke-linejoin="round"/>
</svg>
