<svg width="45" height="31" viewBox="0 0 45 31" fill="none" xmlns="http://www.w3.org/2000/svg">
<g clip-path="url(#clip0_210_4670)">
<path fill-rule="evenodd" clip-rule="evenodd" d="M38.8749 10.5925C39.5583 10.6675 40.5499 10.9758 41.0583 11.2758C41.5749 11.5758 42.2166 12.2091 42.4916 12.6925C42.8249 13.2925 42.9833 14.0425 42.9916 15.0675C42.9916 16.1591 42.8249 16.9258 42.3749 17.8758C41.9166 18.8425 41.4666 19.3591 40.6833 19.8091C39.8999 20.2758 39.2583 20.4341 38.1833 20.4341C37.3999 20.4425 36.4416 20.2841 36.0666 20.0925C35.6833 19.8925 35.0749 19.4175 34.6999 19.0258C34.3333 18.6341 33.9083 18.0091 33.7666 17.6258C33.6166 17.2508 33.4999 16.2091 33.4999 15.3175C33.4999 14.3758 33.6583 13.3758 33.8749 12.9425C34.0833 12.5258 34.6166 11.9175 35.0583 11.5925C35.5083 11.2591 36.2666 10.8675 36.7499 10.7258C37.2333 10.5841 38.1833 10.5258 38.8749 10.5925ZM36.2499 13.4591C35.9666 13.9508 35.7499 14.7758 35.7499 15.3758C35.7499 15.9675 35.8666 16.7508 36.0166 17.1258C36.1666 17.5091 36.5249 18.0758 36.8249 18.3841C37.2083 18.7841 37.6583 18.9508 38.3083 18.9508C39.0416 18.9425 39.3833 18.7758 39.8749 18.1925C40.2166 17.7758 40.5666 16.9675 40.6583 16.3758C40.7416 15.7925 40.7416 14.8925 40.6583 14.3841C40.5666 13.8675 40.2499 13.1591 39.9333 12.8175C39.6249 12.4758 39.0333 12.1341 38.6249 12.0591C38.2083 11.9841 37.6249 12.0758 37.3083 12.2591C36.9999 12.4425 36.5249 12.9841 36.2499 13.4591ZM2.83326 12.6925C2.88326 12.6925 2.8666 13.4508 2.79993 14.3841C2.72493 15.5508 2.8166 16.5258 3.12493 17.5675C3.39993 18.5258 3.8416 19.3508 4.3416 19.8425C4.77493 20.2675 5.2916 20.6675 5.49993 20.7425C5.70826 20.8175 5.78326 20.9758 5.6666 21.0925C5.54993 21.2175 5.0166 21.2925 4.48326 21.2508C3.9416 21.2175 3.15826 20.9925 2.73326 20.7508C2.30826 20.5175 1.74993 19.9758 1.4916 19.5675C1.22493 19.1508 1.00826 18.4508 1.00826 18.0008C0.999929 17.5591 1.10826 17.1341 1.24993 17.0675C1.38326 17.0008 1.74993 17.5175 2.05826 18.2258C2.37493 18.9258 2.77493 19.6341 2.95826 19.7841C3.14993 19.9425 2.98326 19.5008 2.59993 18.8175C2.09993 17.9091 1.88326 17.1258 1.8166 15.9425C1.73326 14.6258 1.8166 14.1675 2.23326 13.5008C2.5166 13.0591 2.78326 12.6925 2.83326 12.6925ZM9.68326 10.7091C9.85826 10.7008 10.2833 10.9758 10.6249 11.3175C11.2333 11.9258 11.2499 12.0175 11.2499 15.7508C11.2416 17.8508 11.1583 19.7091 11.0583 19.8925C10.9499 20.0841 10.5249 20.1841 9.12493 20.0675L8.99993 15.9425H4.99993L5.15826 17.1258C5.2416 17.7841 5.45826 18.7675 5.6416 19.3175C5.82493 19.8675 5.92493 20.3758 5.8666 20.4425C5.80826 20.5091 5.47493 20.3675 5.13326 20.1258C4.78326 19.8925 4.25826 19.2175 3.95826 18.6258C3.59993 17.9258 3.37493 16.9341 3.29993 15.6925C3.23326 14.6425 3.30826 13.4091 3.4666 12.8758C3.62493 12.3675 4.05826 11.7175 4.43326 11.4341C4.8166 11.1508 5.20826 10.9258 5.30826 10.9341C5.4166 10.9425 5.44993 11.2508 5.3916 11.6258C5.32493 12.0091 5.2166 12.7925 4.99993 14.4425H9.12493L8.90826 12.7008C8.72493 11.3008 8.74993 10.9425 9.03326 10.8508C9.2166 10.7841 9.5166 10.7258 9.68326 10.7091ZM14.0166 10.6925C14.2833 10.6925 14.6666 10.8591 14.8749 11.0675C15.1666 11.3591 15.2499 12.1258 15.2499 14.5675C15.2499 17.6841 15.2499 17.6925 15.9333 18.2008C16.3166 18.4841 16.8249 18.7091 17.0749 18.7008C17.3166 18.6925 17.7999 18.4091 18.1333 18.0675C18.7166 17.4758 18.7499 17.2925 18.7499 14.4425C18.7499 12.0425 18.8249 11.3675 19.1416 11.0675C19.3583 10.8591 19.7249 10.6925 19.9583 10.6841C20.1833 10.6841 20.5166 10.8258 20.6916 11.0008C20.9166 11.2258 21.0083 12.2841 20.9999 14.6258C20.9999 17.0675 20.8999 18.1425 20.6249 18.6925C20.4166 19.1008 19.8833 19.6675 19.4333 19.9425C18.8416 20.3091 18.1833 20.4425 16.9999 20.4425C15.8166 20.4425 15.1583 20.3091 14.5583 19.9425C14.1166 19.6675 13.5583 19.0758 13.3166 18.6258C13.0083 18.0341 12.8499 16.9675 12.7583 14.6758C12.6416 11.8508 12.6749 11.4841 13.0833 11.1091C13.3333 10.8841 13.7499 10.6925 14.0166 10.6925ZM24.3083 10.6925C24.8583 10.6925 25.1499 10.9341 25.7499 11.8758C26.1666 12.5341 26.5083 13.1758 26.5083 13.3175C26.5166 13.4508 26.7583 13.9591 27.5749 15.3175L28.7249 13.0675C29.7499 11.0675 29.9583 10.8091 30.6249 10.7341C31.0333 10.6841 31.5416 10.8091 31.7499 11.0008C32.0416 11.2675 32.1666 12.3008 32.2999 15.4591C32.4333 18.5341 32.3999 19.6508 32.1749 19.9008C32.0083 20.0841 31.5333 20.1925 30.3749 20.0675L30.2999 17.3175C30.2583 15.8008 30.1499 14.4841 30.0499 14.3841C29.9583 14.2758 29.4833 14.9925 28.9999 15.9675C28.5166 16.9425 27.9249 17.8425 27.6833 17.9675C27.3999 18.1175 27.1083 18.0841 26.8499 17.8758C26.6333 17.7091 26.0166 16.7758 24.5083 14.0675V16.8175C24.5083 18.6341 24.4083 19.6758 24.1999 19.8758C24.0333 20.0508 23.7249 20.2008 23.5083 20.2008C23.2999 20.2091 22.9999 20.0675 22.8499 19.8925C22.6499 19.6675 22.6166 18.2925 22.7249 15.3675C22.8416 12.0341 22.9499 11.1258 23.2499 10.9341C23.4583 10.8091 23.9333 10.7008 24.3083 10.6925Z" fill="url(#paint0_linear_210_4670)"/>
</g>
<defs>
<linearGradient id="paint0_linear_210_4670" x1="10" y1="11.0005" x2="53.5" y2="26.0005" gradientUnits="userSpaceOnUse">
<stop stop-color="#BFA64B"/>
<stop offset="0.186372" stop-color="#FDEAA3"/>
<stop offset="0.384534" stop-color="#BFA64B"/>
<stop offset="0.611354" stop-color="#FDEAA3"/>
<stop offset="1" stop-color="#FDEAA3"/>
</linearGradient>
<clipPath id="clip0_210_4670">
<rect width="42" height="11" fill="white" transform="translate(1 10.4424)"/>
</clipPath>
</defs>
</svg>
