<svg width="24" height="25" viewBox="0 0 24 25" fill="none" xmlns="http://www.w3.org/2000/svg">
<g clip-path="url(#clip0_34_1135)">
<path d="M12 2.60332C15.2063 2.60332 15.5859 2.61738 16.8469 2.67363C18.0188 2.7252 18.6516 2.92207 19.0734 3.08613C19.6313 3.30176 20.0344 3.56426 20.4516 3.98145C20.8734 4.40332 21.1313 4.80176 21.3469 5.35957C21.5109 5.78145 21.7078 6.41895 21.7594 7.58613C21.8156 8.85176 21.8297 9.23145 21.8297 12.433C21.8297 15.6393 21.8156 16.0189 21.7594 17.2799C21.7078 18.4518 21.5109 19.0846 21.3469 19.5064C21.1313 20.0643 20.8687 20.4674 20.4516 20.8846C20.0297 21.3064 19.6313 21.5643 19.0734 21.7799C18.6516 21.9439 18.0141 22.1408 16.8469 22.1924C15.5813 22.2486 15.2016 22.2627 12 22.2627C8.79375 22.2627 8.41406 22.2486 7.15313 22.1924C5.98125 22.1408 5.34844 21.9439 4.92656 21.7799C4.36875 21.5643 3.96563 21.3018 3.54844 20.8846C3.12656 20.4627 2.86875 20.0643 2.65313 19.5064C2.48906 19.0846 2.29219 18.4471 2.24063 17.2799C2.18438 16.0143 2.17031 15.6346 2.17031 12.433C2.17031 9.22676 2.18438 8.84707 2.24063 7.58613C2.29219 6.41426 2.48906 5.78145 2.65313 5.35957C2.86875 4.80176 3.13125 4.39863 3.54844 3.98145C3.97031 3.55957 4.36875 3.30176 4.92656 3.08613C5.34844 2.92207 5.98594 2.7252 7.15313 2.67363C8.41406 2.61738 8.79375 2.60332 12 2.60332ZM12 0.442383C8.74219 0.442383 8.33438 0.456445 7.05469 0.512695C5.77969 0.568945 4.90313 0.775195 4.14375 1.07051C3.35156 1.37988 2.68125 1.7877 2.01563 2.45801C1.34531 3.12363 0.9375 3.79395 0.628125 4.58145C0.332812 5.34551 0.126563 6.21738 0.0703125 7.49238C0.0140625 8.77676 0 9.18457 0 12.4424C0 15.7002 0.0140625 16.108 0.0703125 17.3877C0.126563 18.6627 0.332812 19.5393 0.628125 20.2986C0.9375 21.0908 1.34531 21.7611 2.01563 22.4268C2.68125 23.0924 3.35156 23.5049 4.13906 23.8096C4.90313 24.1049 5.775 24.3111 7.05 24.3674C8.32969 24.4236 8.7375 24.4377 11.9953 24.4377C15.2531 24.4377 15.6609 24.4236 16.9406 24.3674C18.2156 24.3111 19.0922 24.1049 19.8516 23.8096C20.6391 23.5049 21.3094 23.0924 21.975 22.4268C22.6406 21.7611 23.0531 21.0908 23.3578 20.3033C23.6531 19.5393 23.8594 18.6674 23.9156 17.3924C23.9719 16.1127 23.9859 15.7049 23.9859 12.4471C23.9859 9.18926 23.9719 8.78145 23.9156 7.50176C23.8594 6.22676 23.6531 5.3502 23.3578 4.59082C23.0625 3.79395 22.6547 3.12363 21.9844 2.45801C21.3188 1.79238 20.6484 1.37988 19.8609 1.0752C19.0969 0.779883 18.225 0.573633 16.95 0.517383C15.6656 0.456445 15.2578 0.442383 12 0.442383Z" fill="white"/>
<path d="M12 6.27832C8.59688 6.27832 5.83594 9.03926 5.83594 12.4424C5.83594 15.8455 8.59688 18.6064 12 18.6064C15.4031 18.6064 18.1641 15.8455 18.1641 12.4424C18.1641 9.03926 15.4031 6.27832 12 6.27832ZM12 16.4408C9.79219 16.4408 8.00156 14.6502 8.00156 12.4424C8.00156 10.2346 9.79219 8.44395 12 8.44395C14.2078 8.44395 15.9984 10.2346 15.9984 12.4424C15.9984 14.6502 14.2078 16.4408 12 16.4408Z" fill="white"/>
<path d="M19.8469 6.03477C19.8469 6.83164 19.2 7.47383 18.4078 7.47383C17.6109 7.47383 16.9688 6.82696 16.9688 6.03477C16.9688 5.23789 17.6156 4.5957 18.4078 4.5957C19.2 4.5957 19.8469 5.24258 19.8469 6.03477Z" fill="white"/>
</g>
<defs>
<clipPath id="clip0_34_1135">
<rect width="24" height="24" fill="white" transform="translate(0 0.442383)"/>
</clipPath>
</defs>
</svg>
