<svg width="1440" height="335" viewBox="0 0 1440 335" fill="none" xmlns="http://www.w3.org/2000/svg">
<path d="M-185.243 -211.418C-116.637 -170.963 -55.8935 -118.462 -5.93074 -56.4376C111.729 90.9651 95.6889 207.863 163.202 226.151C267.527 254.4 334.893 -16.9839 554.231 -59.8692C715.104 -91.3441 878.801 15.5992 916.69 40.3772C1064.51 136.928 1084.11 243.901 1190.09 246.745C1267.62 248.908 1290.52 192.615 1411.76 168.771C1496.16 152.174 1570.04 162.718 1619.83 174.435" stroke="white" stroke-opacity="0.08" strokeWidth="5" stroke-miterlimit="10"/>
<path d="M-185.175 -198.634C-116.563 -158.167 -55.81 -105.658 -5.83299 -43.6293C111.829 103.801 95.7866 220.672 163.273 238.961C267.625 267.208 334.99 -4.17551 554.301 -47.0587C715.204 -78.5085 878.901 28.4348 916.788 53.1856C1064.61 149.736 1084.18 256.712 1190.19 259.554C1267.72 261.717 1290.59 205.425 1411.86 181.579C1496.29 164.98 1570.14 175.527 1619.93 187.243" stroke="white" stroke-opacity="0.08" strokeWidth="5" stroke-miterlimit="10"/>
<path d="M-185.107 -185.851C-116.488 -145.392 -55.7338 -92.8825 -5.76462 -30.8461C111.897 116.584 95.855 233.455 163.368 251.743C267.611 279.998 335.086 8.60555 554.397 -34.2776C715.272 -65.7253 878.969 41.218 916.856 65.9687C1064.68 162.547 1084.27 269.493 1190.26 272.337C1267.79 274.5 1290.68 218.179 1411.92 194.335C1496.35 177.736 1570.2 188.283 1620 199.999" stroke="white" stroke-opacity="0.08" strokeWidth="5" stroke-miterlimit="10"/>
<path d="M-184.985 -173.072C-116.38 -132.593 -55.6353 -80.0746 -5.66841 -18.0375C111.994 129.392 95.9512 246.264 163.437 264.553C267.789 292.8 335.155 21.4163 554.466 -21.4669C715.369 -52.9167 879.065 54.0266 916.953 78.7773C1064.77 175.355 1084.34 282.303 1190.35 285.145C1267.88 287.309 1290.75 230.99 1412.02 207.144C1496.45 190.545 1570.3 201.091 1620.09 212.808" stroke="white" stroke-opacity="0.08" strokeWidth="5" stroke-miterlimit="10"/>
<path d="M-184.945 -160.287C-116.332 -119.819 -55.5797 -67.3106 -5.60274 -5.28173C112.087 142.146 96.019 259.047 163.53 277.307C267.855 305.556 335.248 34.1699 554.559 -8.71327C715.461 -40.1631 879.131 66.7823 917.046 91.5309C1064.84 188.111 1084.43 295.057 1190.42 297.901C1267.95 300.064 1290.85 243.744 1412.09 219.899C1496.52 203.3 1570.37 213.874 1620.16 225.564" stroke="white" stroke-opacity="0.08" strokeWidth="5" stroke-miterlimit="10"/>
<path d="M-184.849 -147.506C-116.242 -107.03 -55.4904 -54.523 -5.50655 7.49927C112.156 154.929 96.1152 271.828 163.599 290.09C267.869 318.343 335.317 46.953 554.646 3.95863C715.522 -27.4891 879.219 79.4542 917.106 104.205C1064.93 200.783 1084.49 307.731 1190.51 310.573C1268.04 312.736 1290.91 256.418 1412.17 232.571C1496.6 215.972 1570.46 226.546 1620.27 238.233" stroke="white" stroke-opacity="0.08" strokeWidth="5" stroke-miterlimit="10"/>
<path d="M-184.727 -134.7C-116.121 -94.2184 -55.3838 -41.6886 -5.43475 20.3643C112.255 167.792 96.187 284.693 163.698 302.953C268.025 331.229 335.418 59.8431 554.729 16.96C715.629 -14.5171 879.299 92.4283 917.214 117.177C1065.01 213.757 1084.6 320.703 1190.59 323.547C1268.12 325.71 1291.01 269.39 1412.25 245.545C1496.69 228.974 1570.54 239.52 1620.33 251.21" stroke="white" stroke-opacity="0.08" strokeWidth="5" stroke-miterlimit="10"/>
<path d="M-184.694 -122.026C-116.075 -81.5675 -55.3207 -29.0577 -5.35152 32.9788C112.308 180.381 96.2681 297.28 163.754 315.569C268.106 343.816 335.472 72.4325 554.81 29.5472C715.683 -1.92776 879.38 105.016 917.27 129.794C1065.09 226.344 1084.66 333.292 1190.67 336.162C1268.2 338.325 1291.1 282.004 1412.34 258.187C1496.74 241.59 1570.59 252.137 1620.41 263.851" stroke="white" stroke-opacity="0.08" strokeWidth="5" stroke-miterlimit="10"/>
<path d="M-184.618 -109.136C-115.997 -68.6714 -55.2345 -16.1635 -5.24882 45.8668C112.411 193.269 96.3435 310.17 163.857 328.457C268.127 356.71 335.574 85.3205 554.879 42.3555C715.779 10.8784 879.449 117.824 917.366 142.6C1065.16 239.153 1084.75 346.126 1190.74 348.97C1268.27 351.133 1291.17 294.84 1412.41 270.996C1496.84 254.397 1570.69 264.943 1620.48 276.66" stroke="white" stroke-opacity="0.08" strokeWidth="5" stroke-miterlimit="10"/>
<path d="M-184.469 -96.3594C-115.863 -55.8534 -55.1259 -3.30619 -5.17266 58.7591C112.489 206.189 96.4469 323.06 163.96 341.348C268.285 369.596 335.651 98.2129 554.989 55.3276C715.862 23.8526 879.559 130.796 917.448 155.574C1065.27 252.125 1084.84 359.1 1190.85 361.942C1268.38 364.105 1291.28 307.812 1412.52 283.968C1496.92 267.371 1570.77 277.917 1620.59 289.632" stroke="white" stroke-opacity="0.08" strokeWidth="5" stroke-miterlimit="10"/>
<path d="M-184.431 -83.6272C-115.824 -43.1517 -55.073 9.35569 -5.08907 71.3779C112.573 218.808 96.5305 335.679 164.016 353.969C268.341 382.217 335.734 110.832 555.045 67.9485C715.948 36.4987 879.617 143.444 917.532 168.193C1065.32 264.746 1084.92 371.719 1190.93 374.561C1268.44 376.726 1291.33 320.433 1412.6 296.586C1497.03 279.987 1570.88 290.534 1620.67 302.251" stroke="white" stroke-opacity="0.08" strokeWidth="5" stroke-miterlimit="10"/>
<path d="M-184.362 -70.7905C-115.749 -30.3228 -54.9965 22.1857 -5.01951 84.2146C112.643 231.645 96.6001 348.516 164.113 366.803C268.438 395.052 335.804 123.668 555.142 80.783C716.017 49.3353 879.714 156.279 917.601 181.029C1065.42 277.608 1084.99 384.556 1191 387.398C1268.53 389.561 1291.43 333.24 1412.67 309.396C1497.07 292.799 1570.92 303.346 1620.74 315.06" stroke="white" stroke-opacity="0.08" strokeWidth="5" stroke-miterlimit="10"/>
<path d="M-184.211 -58.0137C-115.61 -17.5304 -54.8594 34.9759 -4.86861 96.9914C112.793 244.421 96.751 361.292 164.237 379.582C268.505 407.808 335.946 136.336 555.211 93.5663C716.114 62.1165 879.783 169.062 917.698 193.81C1065.49 290.391 1085.09 397.337 1191.1 400.179C1268.6 402.344 1291.5 346.023 1412.77 322.177C1497.2 305.578 1571.05 316.152 1620.84 327.841" stroke="white" stroke-opacity="0.08" strokeWidth="5" stroke-miterlimit="10"/>
<path d="M-184.198 -45.2261C-115.586 -4.75839 -54.8332 47.7501 -4.85616 109.779C112.806 257.209 96.7656 374.107 164.277 392.368C268.602 420.616 335.967 149.233 555.305 106.348C716.181 74.8998 879.878 181.843 917.738 206.596C1065.56 303.174 1085.13 410.122 1191.14 412.964C1268.67 415.127 1291.57 358.807 1412.81 334.962C1497.21 318.365 1571.06 328.939 1620.88 340.627" stroke="white" stroke-opacity="0.08" strokeWidth="5" stroke-miterlimit="10"/>
<path d="M-184.103 -32.4448C-115.497 8.03067 -54.7451 60.5381 -4.76121 122.56C112.901 269.99 96.8606 386.889 164.344 405.151C268.642 433.402 336.062 162.014 555.375 119.158C716.278 87.7083 879.947 194.654 917.862 219.402C1065.65 315.983 1085.25 422.929 1191.26 425.771C1268.77 427.936 1291.66 371.615 1412.93 347.769C1497.36 331.197 1571.21 341.744 1621 353.433" stroke="white" stroke-opacity="0.08" strokeWidth="5" stroke-miterlimit="10"/>
<path d="M-183.95 -19.6415C-115.327 20.8101 -54.5711 73.3209 -4.60835 135.364C113.052 282.766 97.0113 399.665 164.522 417.925C268.768 446.207 336.208 174.736 555.471 131.939C716.345 100.464 880.041 207.407 917.929 232.158C1065.75 328.736 1085.32 435.684 1191.33 438.526C1268.86 440.689 1291.76 384.368 1413 360.524C1497.4 343.954 1571.25 354.501 1621.07 366.188" stroke="white" stroke-opacity="0.08" strokeWidth="5" stroke-miterlimit="10"/>
<path d="M-183.936 -6.82727C-115.317 33.6316 -54.5632 86.1415 -4.59395 148.178C113.066 295.581 97.0257 412.479 164.512 430.769C268.837 459.017 336.229 187.632 555.54 144.748C716.441 113.271 880.11 220.217 918.027 244.993C1065.82 341.546 1085.42 448.519 1191.43 451.361C1268.96 453.524 1291.83 397.233 1413.1 373.386C1497.53 356.787 1571.38 367.334 1621.17 379.051" stroke="white" stroke-opacity="0.08" strokeWidth="5" stroke-miterlimit="10"/>
<path d="M-183.871 5.92969C-115.252 46.3886 -54.4982 98.8984 -4.52901 160.935C113.131 308.338 97.0906 425.236 164.604 443.523C268.901 471.774 336.294 200.389 555.637 157.558C716.51 126.083 880.207 233.026 918.096 257.804C1065.91 354.355 1085.49 461.33 1191.5 464.172C1269.03 466.335 1291.93 410.042 1413.17 386.198C1497.57 369.601 1571.42 380.148 1621.24 391.862" stroke="white" stroke-opacity="0.08" strokeWidth="5" stroke-miterlimit="10"/>
<path d="M-183.694 18.7043C-115.082 59.172 -54.3288 111.681 -4.35176 173.709C113.31 321.139 97.2678 438.011 164.754 456.3C269.001 484.61 336.469 213.136 555.7 170.286C716.603 138.837 880.3 245.78 918.187 270.531C1065.98 367.084 1085.58 474.057 1191.59 476.899C1269.12 479.062 1291.99 422.771 1413.26 398.924C1497.69 382.325 1571.54 392.872 1621.33 404.589" stroke="white" stroke-opacity="0.08" strokeWidth="5" stroke-miterlimit="10"/>
<path d="M-183.7 31.5737C-115.082 72.0326 -54.3276 124.542 -4.35837 186.579C113.304 334.009 97.2612 450.88 164.774 469.167C269.099 497.416 336.465 226.033 555.803 183.147C716.672 151.618 880.369 258.561 918.256 283.312C1066.08 379.89 1085.64 486.838 1191.66 489.68C1269.19 491.843 1292.08 435.522 1413.32 411.678C1497.73 395.081 1571.58 405.628 1621.4 417.342" stroke="white" stroke-opacity="0.08" strokeWidth="5" stroke-miterlimit="10"/>
<path d="M-183.613 44.2749C-115.001 84.7426 -54.248 137.251 -4.27096 199.28C113.391 346.71 97.3486 463.581 164.835 481.871C269.159 510.119 336.552 238.734 555.872 195.96C716.774 164.51 880.471 271.453 918.359 296.204C1066.15 392.784 1085.75 499.73 1191.76 502.572C1269.29 504.735 1292.16 448.417 1413.43 424.57C1497.86 407.971 1571.71 418.518 1621.5 430.235" stroke="white" stroke-opacity="0.08" strokeWidth="5" stroke-miterlimit="10"/>
<path d="M-183.436 57.0496C-114.823 97.5173 -54.0707 150.026 -4.09369 212.055C113.568 359.485 97.5281 476.383 165.039 494.643C269.264 523.01 336.732 251.536 555.959 208.632C716.834 177.184 880.531 284.127 918.418 308.878C1066.24 405.456 1085.81 512.404 1191.82 515.246C1269.35 517.409 1292.25 461.089 1413.49 437.244C1497.89 420.648 1571.77 431.219 1621.56 442.909" stroke="white" stroke-opacity="0.08" strokeWidth="5" stroke-miterlimit="10"/>
<path d="M-183.438 69.9729C-114.832 110.448 -54.0801 162.956 -4.09616 224.978C113.566 372.408 97.5256 489.306 165.009 507.569C269.334 535.817 336.727 264.432 556.038 221.549C716.93 189.962 880.627 296.906 918.514 321.656C1066.33 418.235 1085.9 525.183 1191.92 528.025C1269.45 530.188 1292.31 473.869 1413.58 450.023C1498.01 433.424 1571.86 443.998 1621.66 455.687" stroke="white" stroke-opacity="0.08" strokeWidth="5" stroke-miterlimit="10"/>
<path d="M-183.379 82.6492C-114.764 123.1 -54.0105 175.601 -4.03946 237.627C113.623 385.057 97.5823 501.955 165.093 520.216C269.42 548.492 336.786 277.108 556.122 234.195C716.997 202.748 880.694 309.691 918.582 334.442C1066.4 431.02 1086 537.966 1191.98 540.81C1269.51 542.973 1292.41 486.652 1413.65 462.808C1498.05 446.239 1571.93 456.783 1621.72 468.472" stroke="white" stroke-opacity="0.08" strokeWidth="5" stroke-miterlimit="10"/>
<path d="M-183.176 95.417C-114.557 135.876 -53.8031 188.386 -3.83392 250.422C113.826 397.825 97.7857 514.723 165.272 533.013C269.525 561.404 336.994 289.93 556.191 247.001C717.092 215.524 880.789 322.467 918.678 347.245C1066.5 443.796 1086.06 550.744 1192.08 553.614C1269.61 555.777 1292.48 499.458 1413.75 475.639C1498.18 459.04 1572.03 469.587 1621.82 481.303" stroke="white" stroke-opacity="0.08" strokeWidth="5" stroke-miterlimit="10"/>
<path d="M-183.217 108.209C-114.598 148.668 -53.8439 201.177 -3.87473 263.214C113.785 410.617 97.7449 527.515 165.258 545.802C269.583 574.051 336.976 302.665 556.287 259.782C717.16 228.307 880.85 335.169 918.774 360.027C1066.56 456.58 1086.16 563.553 1192.15 566.397C1269.68 568.56 1292.58 512.266 1413.82 488.422C1498.25 471.823 1572.1 482.37 1621.89 494.087" stroke="white" stroke-opacity="0.08" strokeWidth="5" stroke-miterlimit="10"/>
<path d="M-183.122 120.99C-114.51 161.458 -53.7567 213.966 -3.77975 275.995C113.882 423.425 97.8398 540.296 165.326 558.586C269.678 586.832 337.043 315.449 556.354 272.566C717.255 241.089 880.952 348.032 918.841 372.81C1066.66 469.361 1086.23 576.336 1192.24 579.178C1269.77 581.341 1292.64 525.05 1413.91 501.204C1498.34 484.605 1572.19 495.151 1621.98 506.868" stroke="white" stroke-opacity="0.08" strokeWidth="5" stroke-miterlimit="10"/>
</svg>
