<svg width="45" height="31" viewBox="0 0 45 31" fill="none" xmlns="http://www.w3.org/2000/svg">
<path d="M37.5 15.3383C37.5 20.4627 33.3541 24.6086 28.2296 24.6086C26.0665 24.6086 24.0837 23.8619 22.5129 22.6258C24.676 20.9262 26.0408 18.2996 26.0408 15.3383C26.0408 12.3769 24.6502 9.75028 22.5129 8.05071C24.0837 6.81466 26.0665 6.06787 28.2296 6.06787C33.3541 6.06787 37.5 10.2395 37.5 15.3383Z" fill="#F79E1B"/>
<path d="M22.5129 8.05071C22.5129 8.05071 22.5129 8.05071 22.5129 8.05071C24.6502 9.75028 26.0408 12.3769 26.0408 15.3383C26.0408 18.2996 24.676 20.9262 22.5129 22.6258L22.487 22.6258C20.3497 20.952 18.9592 18.2997 18.9592 15.3383C18.9592 12.3769 20.3498 9.75033 22.4871 8.05076C22.4871 8.05074 22.4871 8.05078 22.4871 8.05076L22.5129 8.05071Z" fill="#FF5F00"/>
<path d="M18.9592 15.3383C18.9592 12.3769 20.3498 9.75033 22.4871 8.05076C20.9163 6.81471 18.9335 6.06791 16.7704 6.06791C11.6459 6.06791 7.5 10.2138 7.5 15.3383C7.5 20.4628 11.6459 24.6087 16.7704 24.6087C18.9335 24.6087 20.9162 23.8619 22.487 22.6258C20.3497 20.952 18.9592 18.2997 18.9592 15.3383Z" fill="#EB001B"/>
</svg>
