<svg width="33" height="33" viewBox="0 0 33 33" fill="none" xmlns="http://www.w3.org/2000/svg">
<rect x="29.8335" y="4.44238" width="24" height="26.6667" rx="6" transform="rotate(90 29.8335 4.44238)" stroke="white"/>
<path d="M16.4997 13.4609C15.6813 14.1933 15.1663 15.2577 15.1663 16.4424C15.1663 17.627 15.6813 18.6914 16.4997 19.4239M16.4997 13.4609C17.2073 12.8275 18.1419 12.4424 19.1663 12.4424C21.3755 12.4424 23.1663 14.2332 23.1663 16.4424C23.1663 18.6515 21.3755 20.4424 19.1663 20.4424C18.1419 20.4424 17.2073 20.0572 16.4997 19.4239M16.4997 13.4609C15.792 12.8275 14.8575 12.4424 13.833 12.4424C11.6239 12.4424 9.83301 14.2332 9.83301 16.4424C9.83301 18.6515 11.6239 20.4424 13.833 20.4424C14.8575 20.4424 15.792 20.0572 16.4997 19.4239" stroke="white"/>
</svg>
