<svg width="33" height="32" viewBox="0 0 33 32" fill="none" xmlns="http://www.w3.org/2000/svg">
<path d="M23.3333 9.99996V5.33329C23.3333 3.86053 22.1394 2.66663 20.6667 2.66663H12.6667C11.1939 2.66663 10 3.86053 10 5.33329V9.99996M27.3333 18.6666C27.3333 24.5577 22.5577 29.3333 16.6667 29.3333C10.7756 29.3333 6 24.5577 6 18.6666C6 12.7756 10.7756 7.99996 16.6667 7.99996C22.5577 7.99996 27.3333 12.7756 27.3333 18.6666ZM13.9949 16.2394L12.3364 16.4899C11.3767 16.6349 10.9935 17.861 11.6879 18.5648L12.888 19.7811C13.1638 20.0605 13.2896 20.4632 13.2245 20.8578L12.9412 22.5752C12.7773 23.5689 13.7805 24.3267 14.6388 23.8575L16.1222 23.0467C16.4631 22.8604 16.8703 22.8604 17.2111 23.0467L18.6945 23.8575C19.5529 24.3267 20.556 23.5689 20.3921 22.5752L20.1088 20.8578C20.0437 20.4632 20.1695 20.0605 20.4453 19.7811L21.6454 18.5648C22.3398 17.861 21.9566 16.6349 20.997 16.4899L19.3385 16.2394C18.9574 16.1818 18.628 15.9329 18.4575 15.5739L17.7158 14.0114C17.2867 13.1073 16.0467 13.1073 15.6175 14.0114L14.8758 15.5739C14.7054 15.9329 14.3759 16.1818 13.9949 16.2394Z" stroke="#15181E" stroke-linecap="round" stroke-linejoin="round"/>
</svg>
