<svg width="119" height="32" viewBox="0 0 119 32" fill="none" xmlns="http://www.w3.org/2000/svg">
<g clip-path="url(#clip0_148_4262)">
<path d="M13.4629 23H0.914286V7.68571H4.34286V19.9143H13.4629V23ZM18.3629 23.2286C15.8943 23.2286 14.4086 22.0857 14.4086 20.1657C14.4086 18.4743 15.6657 17.4229 18.1114 17.1714L23.0257 16.6686V16.2343C23.0257 14.7486 22.3629 14.3371 20.5343 14.3371C18.7971 14.3371 18.0886 14.7943 18.0886 16.0971V16.1886H14.6371V16.12C14.6371 13.2857 17.0143 11.32 20.7857 11.32C24.6029 11.32 26.4086 13.2857 26.4086 16.28V23H23.2086V20.3714H23.0257C22.5 22.1543 20.9 23.2286 18.3629 23.2286ZM17.86 19.9371C17.86 20.5543 18.34 20.8057 19.3457 20.8057C21.6771 20.8057 22.9343 20.2571 23.0257 18.6343L19.0486 19.0914C18.2257 19.16 17.86 19.3886 17.86 19.9371ZM39.8264 23H27.6664V20.0743L32.5807 16.1657L34.9807 14.6571V14.4286L32.5807 14.5657H28.0093V11.5486H39.4836V14.4971L34.1807 18.5886L32.0093 19.9371V20.1657L34.1807 20.0057H39.8264V23ZM45.9136 23.2286C42.6907 23.2286 41.1593 21.24 41.1593 18.68V11.5486H44.5879V17.5371C44.5879 19.3886 45.365 20.1657 47.5364 20.1657C49.7764 20.1657 50.5764 19.2971 50.5764 17.3543V11.5486H54.005V23H50.805V19.5029H50.6221C50.325 21.4229 48.9307 23.2286 45.9136 23.2286ZM59.1866 23H55.758V11.5486H58.9352V15.0686H59.1409C59.438 13.1486 60.8095 11.32 63.8037 11.32C66.9352 11.32 68.4209 13.3314 68.4209 15.8686V23H64.9923V17.0114C64.9923 15.1829 64.238 14.4057 62.1352 14.4057C59.9637 14.4057 59.1866 15.2743 59.1866 17.2171V23ZM76.2582 23.2286C72.3496 23.2286 69.7211 20.8971 69.7211 17.2857C69.7211 13.6286 72.3496 11.32 76.2582 11.32C80.1668 11.32 82.7954 13.6286 82.7954 17.2857C82.7954 20.8971 80.1668 23.2286 76.2582 23.2286ZM76.2582 20.1886C78.5668 20.1886 79.3896 19.2971 79.3896 17.2857C79.3896 15.2743 78.5668 14.3371 76.2582 14.3371C73.9268 14.3371 73.1268 15.2743 73.1268 17.2857C73.1268 19.2971 73.9268 20.1886 76.2582 20.1886ZM95.608 23.2286C90.5337 23.2286 87.3795 20.12 87.3795 15.3429C87.3795 10.5657 90.5337 7.45714 95.608 7.45714C100.797 7.45714 103.928 10.5657 103.928 15.3429C103.928 20.12 100.797 23.2286 95.608 23.2286ZM95.608 19.9371C98.968 19.9371 100.271 18.7486 100.271 15.3429C100.271 11.9371 98.968 10.7486 95.608 10.7486C92.248 10.7486 91.0137 11.9371 91.0137 15.3429C91.0137 18.7486 92.248 19.9371 95.608 19.9371ZM108.852 23H105.423V7.68571H108.852V15.8H111.457L114.383 11.5486H118.452L114.269 17.08L118.383 23H114.337L111.48 18.8629H108.852V23Z" fill="white"/>
</g>
<defs>
<clipPath id="clip0_148_4262">
<rect width="119" height="32" fill="white"/>
</clipPath>
</defs>
</svg>
