<svg width="28" height="28" viewBox="0 0 28 28" fill="none" xmlns="http://www.w3.org/2000/svg">
<path d="M2.57129 7.14296C2.57129 4.98797 2.57129 3.91047 3.24076 3.241C3.91023 2.57153 4.98773 2.57153 7.14272 2.57153C9.29771 2.57153 10.3752 2.57153 11.0447 3.241C11.7141 3.91047 11.7141 4.98797 11.7141 7.14296V20.8572C11.7141 23.0122 11.7141 24.0897 11.0447 24.7592C10.3752 25.4287 9.29771 25.4287 7.14272 25.4287C4.98773 25.4287 3.91023 25.4287 3.24076 24.7592C2.57129 24.0897 2.57129 23.0122 2.57129 20.8572V7.14296Z" fill="white"/>
<path d="M16.2856 7.14296C16.2856 4.98797 16.2856 3.91047 16.9551 3.241C17.6246 2.57153 18.7021 2.57153 20.8571 2.57153C23.0121 2.57153 24.0896 2.57153 24.759 3.241C25.4285 3.91047 25.4285 4.98797 25.4285 7.14296V20.8572C25.4285 23.0122 25.4285 24.0897 24.759 24.7592C24.0896 25.4287 23.0121 25.4287 20.8571 25.4287C18.7021 25.4287 17.6246 25.4287 16.9551 24.7592C16.2856 24.0897 16.2856 23.0122 16.2856 20.8572V7.14296Z" fill="white"/>
</svg>
