<svg width="45" height="31" viewBox="0 0 45 31" fill="none" xmlns="http://www.w3.org/2000/svg">
<path d="M24.5517 10.6062C24.6517 10.5479 24.8518 10.4771 25.0018 10.4438C25.231 10.3938 26.4269 10.3813 32.8566 10.3813C39.5738 10.3771 40.4697 10.3855 40.6906 10.4396C40.8281 10.4771 41.0781 10.5854 41.249 10.6812C41.4282 10.7812 41.724 11.0144 41.9532 11.231C42.1699 11.4351 42.5491 11.8392 42.7949 12.1266C43.0408 12.414 43.57 13.0596 43.9742 13.5636C44.3784 14.0676 44.7701 14.5925 44.8451 14.7299C44.9576 14.9423 44.9826 15.034 44.9951 15.3339C45.0076 15.5796 44.9951 15.7587 44.9493 15.917C44.9118 16.042 44.8118 16.2586 44.7201 16.396C44.6326 16.5335 44.3451 16.8876 44.0825 17.1875C43.82 17.4832 43.3283 18.0247 42.9866 18.3954C42.6449 18.762 42.1949 19.2326 41.9865 19.4367C41.7782 19.645 41.4657 19.9033 41.2948 20.0199C41.124 20.1324 40.8573 20.2698 40.4197 20.4156L25.1476 20.3948L24.8768 20.3031C24.7268 20.2532 24.5267 20.1532 24.4309 20.0865C24.3142 19.9991 24.2184 19.8824 24.1475 19.7366C24.0934 19.62 24.0267 19.3993 24.0017 19.2493C23.9725 19.066 23.96 17.7998 23.9684 15.2506C23.9809 11.7475 23.985 11.5101 24.06 11.2935C24.1017 11.1685 24.1892 10.9853 24.2559 10.8853C24.3226 10.7895 24.4559 10.6645 24.5517 10.6062Z" fill="#09C3D5"/>
<path fill-rule="evenodd" clip-rule="evenodd" d="M0.354196 9.1736L2.64605 9.16943C4.80874 9.16943 4.96292 9.1736 5.37545 9.25691C5.61714 9.30272 5.95467 9.39853 6.12551 9.46101C6.29636 9.52765 6.57138 9.67344 6.72973 9.7859C6.88808 9.89837 7.09643 10.09 7.19227 10.2149C7.28394 10.3399 7.40062 10.5065 7.44646 10.5856C7.49646 10.6648 7.5798 10.8606 7.63814 11.023C7.69648 11.1855 7.76732 11.4729 7.79232 11.6686C7.82566 11.8852 7.83816 12.2018 7.82149 12.4809C7.80899 12.735 7.75898 13.089 7.70898 13.2723C7.66314 13.4556 7.5548 13.7388 7.46729 13.8971C7.36728 14.0929 7.20894 14.297 6.97975 14.5219C6.7964 14.7052 6.53388 14.9218 6.39637 15.0009C6.25886 15.0801 5.96717 15.205 5.75048 15.28C5.5338 15.355 5.18793 15.4466 4.97958 15.4841C4.7254 15.5299 4.27953 15.5591 3.60447 15.5716C2.71273 15.5882 2.58772 15.6007 2.46687 15.6715C2.39603 15.7132 2.29603 15.8132 2.25019 15.884C2.17518 16.0048 2.16685 16.0964 2.16685 16.6587C2.16685 17.1377 2.15435 17.2918 2.11684 17.2918C2.08767 17.2918 1.93766 17.2127 1.78765 17.1169C1.63764 17.0169 1.38762 16.8212 1.2251 16.6837C1.06676 16.5421 0.816735 16.2755 0.666723 16.0881C0.51671 15.9006 0.308359 15.5966 0 15.0634V12.3226C0 10.1025 0.012501 9.56514 0.0583382 9.46934C0.0875073 9.40686 0.166681 9.31522 0.233353 9.26524L0.354196 9.1736ZM2.15851 11.0522L2.16685 13.6263L2.37103 13.8554C3.77948 13.8471 4.30869 13.8221 4.45871 13.793C4.60872 13.768 4.82957 13.693 4.95458 13.6347C5.07959 13.5722 5.23377 13.4556 5.30461 13.3764C5.37545 13.2973 5.47129 13.1473 5.51296 13.0432C5.56713 12.9224 5.60464 12.7266 5.61714 12.4809C5.62547 12.2768 5.61714 12.0019 5.59213 11.8769C5.56713 11.7519 5.48379 11.5562 5.40879 11.4395C5.30044 11.2771 5.21294 11.2021 5.00042 11.098C4.77957 10.9855 4.65039 10.9522 4.31286 10.9189C4.08368 10.898 3.55863 10.8814 3.14193 10.8772C2.44187 10.8772 2.37937 10.8856 2.27519 10.9647L2.15851 11.0522ZM0.0208351 16.3255L0.229186 16.5171C0.341695 16.6212 0.566714 16.8003 0.729228 16.9128C0.887574 17.0253 1.19593 17.2085 1.41679 17.3252C1.63347 17.4376 1.89183 17.5584 2.16685 17.6667L2.14601 19.0913L2.02934 19.1912C1.91683 19.2912 1.90016 19.2912 1.10426 19.2912C0.650055 19.2912 0.250021 19.2745 0.19585 19.2496C0.145846 19.2287 0.0791733 19.1621 0.0500042 19.1038C0.0125011 19.0288 0 18.6664 0.00833403 17.6626L0.0208351 16.3255ZM20.3475 18.8788C20.3642 18.8788 20.3767 18.8913 20.3767 18.908C20.3767 18.9247 20.3142 19.1079 20.235 19.3162C20.16 19.5203 20.0183 19.8702 19.9225 20.0868C19.8225 20.3034 19.6641 20.6241 19.5641 20.7949C19.4641 20.9657 19.2808 21.2281 19.1599 21.378C19.0308 21.5322 18.8057 21.7363 18.6266 21.8571C18.4557 21.9737 18.1932 22.1111 18.0432 22.1611C17.814 22.2403 17.6806 22.2528 17.1806 22.2528C16.8347 22.2528 16.5014 22.2278 16.393 22.1986C16.2722 22.1653 16.1722 22.1111 16.1305 22.0445C16.0805 21.9654 16.0597 21.8071 16.0513 21.3364C16.043 20.8449 16.0513 20.7116 16.1055 20.6366C16.1639 20.5491 16.1972 20.545 16.8889 20.5283C17.4973 20.52 17.6515 20.5033 17.8973 20.42C18.0598 20.37 18.3599 20.2409 18.5641 20.1409C18.7724 20.0368 19.0974 19.841 19.2933 19.7077C19.4891 19.5745 19.7975 19.337 19.9808 19.1746C20.1642 19.0121 20.3267 18.883 20.3475 18.8788Z" fill="white"/>
<path d="M28.0646 12.3434C28.2021 12.2893 28.4271 12.2185 28.5647 12.1893C28.7022 12.156 28.9355 12.131 29.0855 12.131C29.2355 12.1268 29.4606 12.1435 29.5856 12.1643C29.7106 12.1852 29.9189 12.2393 30.0439 12.2851C30.1773 12.3351 30.369 12.4559 30.5023 12.5767C30.6273 12.6892 30.7898 12.8849 30.9815 13.2473L31.2732 12.9641C31.4357 12.8058 31.6858 12.6017 31.8358 12.5059C31.9858 12.4101 32.2108 12.2935 32.3358 12.2476C32.4608 12.2018 32.7067 12.1518 32.8775 12.1393C33.0484 12.1268 33.3317 12.1393 33.5026 12.1643C33.6734 12.1935 33.9318 12.2685 34.0735 12.3351C34.2193 12.4059 34.4276 12.5475 34.536 12.6558C34.6443 12.7683 34.786 12.9599 34.8485 13.0849C34.911 13.2098 34.9944 13.4181 35.0319 13.5431C35.0944 13.743 35.1027 14.0721 35.1152 16.1672C35.1277 18.2207 35.1235 18.5748 35.0694 18.6456C35.0152 18.7247 34.9569 18.7289 33.4609 18.7497L33.2525 18.5415V16.4171C33.2525 14.9385 33.2359 14.2262 33.2025 14.0721C33.1734 13.9346 33.1067 13.8055 33.0275 13.718C32.9567 13.643 32.8317 13.5597 32.7525 13.5347C32.6733 13.5097 32.515 13.5014 32.3983 13.5181C32.2816 13.5306 32.115 13.5806 32.0233 13.6305C31.9316 13.6764 31.7733 13.793 31.6732 13.8888C31.5732 13.9846 31.4191 14.1512 31.169 14.4594V16.5088C31.169 18.2291 31.1607 18.5748 31.1107 18.6456C31.0565 18.7247 30.9982 18.7289 30.2856 18.7414C29.6606 18.7497 29.5064 18.7414 29.3356 18.6248V16.6171C29.3356 15.5091 29.3147 14.4678 29.2939 14.3053C29.2689 14.1387 29.2147 13.9263 29.1689 13.8346C29.1064 13.7097 29.0355 13.6472 28.8855 13.5806C28.7397 13.5139 28.6397 13.4972 28.4813 13.5097C28.3646 13.5222 28.1938 13.5722 28.0938 13.6222C27.9979 13.668 27.8313 13.7888 27.7271 13.8846C27.6229 13.9846 27.4729 14.147 27.2562 14.4386L27.252 18.5415L27.1479 18.6456C27.0479 18.7497 27.0437 18.7497 26.2936 18.7497C25.5977 18.7497 25.5394 18.7456 25.4602 18.6664C25.3811 18.5873 25.3769 18.5373 25.3977 15.4799L25.5186 15.1675C25.5811 14.9968 25.7228 14.7094 25.8311 14.5302C25.9353 14.3511 26.1478 14.0512 26.2978 13.8638C26.4478 13.6764 26.7603 13.3431 26.9854 13.1265C27.2104 12.9099 27.4896 12.6642 27.6062 12.585C27.7188 12.5101 27.9271 12.3976 28.0646 12.3434Z" fill="white"/>
<path d="M38.253 12.2935C38.3571 12.2643 38.5822 12.231 38.753 12.2143C38.9239 12.2018 39.178 12.1935 39.3156 12.2018C39.4531 12.2102 39.7156 12.2518 39.8989 12.2976C40.0823 12.3434 40.3448 12.4351 40.4823 12.5059C40.6198 12.5725 40.8365 12.71 40.9615 12.81C41.0865 12.9058 41.2824 13.1099 41.3949 13.2557C41.5074 13.4014 41.6658 13.6639 41.7449 13.8346C41.8241 14.0054 41.9241 14.2887 41.9699 14.4594C42.0116 14.6302 42.0575 14.9426 42.0741 15.1467C42.0866 15.3508 42.0866 15.5716 42.0741 15.6382C42.0575 15.7049 41.9949 15.7757 41.9199 15.8132C41.8158 15.8673 41.4866 15.8757 37.7113 15.8757L37.7363 16.1131C37.7529 16.2464 37.7863 16.438 37.8196 16.5421C37.8488 16.6462 37.9363 16.8212 38.0113 16.9378C38.0863 17.0503 38.2238 17.1961 38.3155 17.2585C38.4071 17.321 38.603 17.4043 38.753 17.4418C38.9405 17.4876 39.103 17.5043 39.2822 17.4835C39.4281 17.471 39.6322 17.4127 39.7406 17.3585C39.8531 17.3044 39.9989 17.1961 40.0656 17.1169C40.1323 17.0336 40.2406 16.9003 40.3031 16.817C40.3865 16.7129 40.474 16.6546 40.5948 16.6213C40.6948 16.5963 40.999 16.5838 41.2824 16.5921C41.6616 16.6004 41.8074 16.6213 41.8616 16.6671C41.9074 16.7129 41.9199 16.7712 41.9033 16.8753C41.8908 16.9545 41.8074 17.1419 41.7241 17.2919C41.6366 17.4418 41.4366 17.6959 41.2741 17.8584C41.0449 18.0874 40.899 18.1916 40.5865 18.3457C40.3406 18.4665 40.0615 18.5665 39.8573 18.6081C39.6114 18.6581 39.3781 18.6706 38.9614 18.6581C38.4655 18.6414 38.353 18.6248 38.0238 18.5081C37.8154 18.4332 37.5446 18.3124 37.4196 18.2416C37.2946 18.1666 37.0612 17.9708 36.8987 17.8125C36.7403 17.6501 36.5445 17.4168 36.4695 17.2919C36.3986 17.1669 36.282 16.9045 36.2111 16.7087C36.1445 16.513 36.0695 16.1839 36.0403 15.9798C36.0153 15.7674 36.0028 15.4425 36.0194 15.23C36.0319 15.0259 36.082 14.7052 36.1278 14.5219C36.1736 14.3386 36.2861 14.0387 36.3778 13.8555C36.4653 13.6722 36.6403 13.4014 36.7612 13.2515C36.8862 13.1015 37.107 12.8933 37.2529 12.785C37.4029 12.6767 37.6446 12.5351 37.7946 12.4684C37.9446 12.3976 38.1488 12.3226 38.253 12.2935Z" fill="white"/>
<path d="M25.3769 13.3265C25.3727 12.5392 25.3811 12.4143 25.4394 12.3601C25.4977 12.306 25.6311 12.2935 26.2645 12.2935C26.927 12.2935 27.0312 12.306 27.0979 12.3684C27.1395 12.4059 27.1729 12.4934 27.1729 12.5642C27.1729 12.6767 27.1312 12.7142 26.7687 12.9391C26.5062 13.1015 26.2228 13.3265 25.9603 13.5847C25.7353 13.8013 25.5144 14.0346 25.3811 14.2303L25.3769 13.3265Z" fill="white"/>
<path fill-rule="evenodd" clip-rule="evenodd" d="M11.8969 11.8101C12.7053 11.8226 12.8594 11.8392 13.2095 11.9267C13.4262 11.985 13.747 12.1058 13.9179 12.1933C14.0887 12.2808 14.3221 12.4432 14.4387 12.5473C14.5513 12.6515 14.6971 12.8306 14.7596 12.9431C14.8221 13.0555 14.9138 13.2971 14.968 13.4804C15.0555 13.8053 15.0596 13.8719 15.0763 16.3336C15.0846 17.7207 15.0805 18.9162 15.068 18.9911C15.0555 19.0619 15.0055 19.1619 14.9596 19.2077C14.8805 19.2869 14.8221 19.291 14.0429 19.291C13.2095 19.291 13.2095 19.291 13.1053 19.1869C13.022 19.1036 13.0011 19.0411 13.0011 18.8745C13.0011 18.762 12.9928 18.6662 12.9803 18.6662C12.9678 18.6662 12.7969 18.7704 12.5928 18.8953C12.3927 19.0245 12.1261 19.1661 12.001 19.2119C11.876 19.2619 11.6427 19.3285 11.4802 19.366C11.2802 19.4118 10.9843 19.4285 10.5426 19.4285C9.96337 19.4285 9.8592 19.416 9.52167 19.316C9.31749 19.2535 9.0633 19.1536 8.95912 19.0953C8.85495 19.0328 8.6716 18.8912 8.55076 18.7745C8.40908 18.6371 8.27573 18.458 8.18406 18.2705C8.08405 18.0664 8.02571 17.8748 7.99238 17.6249C7.95487 17.3292 7.95904 17.2042 8.01321 16.8751C8.05488 16.6252 8.13405 16.3711 8.22156 16.1879C8.3049 16.0171 8.46325 15.7838 8.61326 15.6255C8.77577 15.4464 8.95912 15.3048 9.15081 15.2007C9.30915 15.1174 9.57167 15.0091 9.73002 14.9632C9.88837 14.9174 10.1926 14.8466 10.3967 14.8091C10.6093 14.7716 11.1676 14.73 11.676 14.7175C12.5011 14.6925 12.5886 14.68 12.6969 14.6009C12.7594 14.555 12.8386 14.4426 12.8678 14.3509C12.9011 14.2635 12.9178 14.1052 12.9053 14.0011C12.8928 13.8969 12.8469 13.722 12.7969 13.6053C12.7469 13.4929 12.6636 13.3554 12.6136 13.3013C12.5636 13.2513 12.4302 13.168 12.3136 13.118C12.1344 13.0389 12.0344 13.0264 11.5843 13.0264C11.1926 13.0264 11.0176 13.0472 10.876 13.1013C10.7718 13.1388 10.6301 13.2138 10.5634 13.268C10.4926 13.3179 10.3676 13.497 10.2842 13.6595C10.1967 13.8261 10.0884 13.9802 10.0425 14.0011C9.99671 14.026 9.64668 14.0427 9.25915 14.0427C8.59659 14.0469 8.55909 14.0427 8.44241 13.9511C8.33407 13.8636 8.32574 13.8344 8.34241 13.6678C8.35074 13.5637 8.42575 13.3388 8.50492 13.168C8.60076 12.9639 8.72994 12.7764 8.87995 12.6265C9.01746 12.489 9.23415 12.3308 9.43833 12.2225C9.62168 12.1266 9.89253 12.0184 10.0425 11.9809C10.1926 11.9392 10.4634 11.8809 10.6468 11.8517C10.876 11.8142 11.2635 11.8018 11.8969 11.8101ZM10.8593 16.1087C10.7009 16.1587 10.5426 16.2503 10.4259 16.3545C10.3259 16.4461 10.2176 16.5961 10.1801 16.6877C10.1384 16.8002 10.1217 16.9543 10.1342 17.1667C10.1467 17.4125 10.1717 17.5124 10.2509 17.6332C10.3092 17.7165 10.4217 17.829 10.5009 17.8831C10.5801 17.9373 10.7384 18.0039 10.8551 18.0331C10.9676 18.0581 11.1926 18.0831 11.3552 18.0831C11.5177 18.0831 11.7635 18.0539 11.9094 18.0206C12.051 17.9873 12.2636 17.9123 12.3761 17.854C12.4928 17.7957 12.6678 17.6666 12.7719 17.5624L12.9595 17.375C12.9595 16.5003 12.9428 16.367 12.8845 16.2545C12.8469 16.1754 12.7594 16.0712 12.6969 16.0254C12.5969 15.9504 12.5094 15.9379 12.1344 15.9296C11.8885 15.9254 11.5593 15.9463 11.3968 15.9754C11.2343 16.0046 10.9926 16.0629 10.8593 16.1087ZM16.6014 11.96C17.2807 11.96 17.3682 11.9684 17.489 12.0433C17.564 12.0892 17.6515 12.1766 17.6849 12.2391C17.7182 12.3058 18.0557 13.2471 18.4391 14.3343C18.8183 15.4214 19.1433 16.3253 19.16 16.342C19.1766 16.3628 19.4767 15.5756 19.8309 14.5925C20.1809 13.6137 20.5226 12.6723 20.5851 12.5015C20.6601 12.3016 20.7518 12.1475 20.9601 11.96H21.8019C22.4311 11.96 22.6603 11.9725 22.7019 12.01C22.7311 12.0392 22.7519 12.1142 22.7519 12.1766C22.7519 12.2433 22.6061 12.7098 22.4228 13.218C22.2436 13.7303 21.856 14.8133 21.5643 15.6255C21.2727 16.4378 20.9893 17.1875 20.9268 17.2917C20.8685 17.3958 20.7268 17.6207 20.6101 17.7915C20.4934 17.9623 20.2684 18.2622 20.1017 18.458C19.9392 18.6537 19.6475 18.9495 19.4558 19.1203C19.2642 19.2869 18.9641 19.5201 18.7933 19.6368C18.6224 19.7534 18.3307 19.92 18.1474 20.0033C17.964 20.0908 17.8015 20.1533 17.7807 20.1408C17.764 20.1324 17.7765 20.0908 17.8099 20.0491C17.8432 20.0116 17.9265 19.8575 17.9974 19.7076C18.0682 19.5576 18.1266 19.3868 18.1266 19.3202C18.1266 19.2577 17.6599 17.929 17.089 16.3628C16.5181 14.8008 15.9555 13.2638 15.8389 12.9472C15.7222 12.6348 15.6263 12.3224 15.6222 12.2558C15.618 12.1683 15.6514 12.11 15.7347 12.0475C15.8389 11.9684 15.9014 11.96 16.6014 11.96Z" fill="white"/>
<path d="M38.4411 13.5764C38.5328 13.5264 38.6537 13.4723 38.712 13.4556C38.7703 13.4389 38.9328 13.4223 39.0787 13.4223C39.2454 13.4181 39.4121 13.4473 39.5579 13.5014C39.6746 13.5472 39.8246 13.6305 39.8829 13.6805C39.9413 13.7305 40.0413 13.8388 40.0996 13.9179C40.1621 13.9971 40.2496 14.1804 40.2955 14.322C40.3413 14.4678 40.3788 14.6302 40.3788 14.7927H39.0454C38.312 14.7927 37.7119 14.7802 37.7119 14.7593C37.7119 14.7427 37.7327 14.6469 37.7578 14.5427C37.7828 14.4386 37.8494 14.2595 37.9036 14.147C37.9619 14.0304 38.0703 13.8763 38.1411 13.8013C38.2161 13.7222 38.3495 13.6222 38.4411 13.5764Z" fill="#09C3D5"/>
</svg>
