<svg width="33" height="33" viewBox="0 0 33 33" fill="none" xmlns="http://www.w3.org/2000/svg">
<path d="M5.83325 16.4424V26.7757C5.83325 28.4326 7.1764 29.7757 8.83325 29.7757H24.1666C25.8234 29.7757 27.1666 28.4326 27.1666 26.7757V16.4424" stroke="white"/>
<path d="M16.5 11.1089H26.6667C26.9814 11.1089 27.2778 11.2571 27.4667 11.5089L29.9667 14.8422C30.4611 15.5015 29.9907 16.4422 29.1667 16.4422H21C20.6852 16.4422 20.3889 16.294 20.2 16.0422L16.5 11.1089Z" stroke="white"/>
<path d="M16.5 11.1089H6.33333C6.01858 11.1089 5.72219 11.2571 5.53333 11.5089L3.03333 14.8422C2.5389 15.5015 3.00929 16.4422 3.83333 16.4422H12C12.3148 16.4422 12.6111 16.294 12.8 16.0422L16.5 11.1089Z" stroke="white"/>
<path d="M13.2812 5.77555L11.1667 3.10889L19.8335 3.10889C20.9381 3.10889 21.8335 4.00432 21.8335 5.10889V5.10889C21.8335 6.21346 20.9381 7.10889 19.8335 7.10889L17.8335 7.10889" stroke="white" strokeLinecap="round" strokeLinejoin="round"/>
</svg>
