<svg width="24" height="24" viewBox="0 0 24 24" fill="none" xmlns="http://www.w3.org/2000/svg">
<g clip-path="url(#clip0_272_549)">
<path fill-rule="evenodd" clip-rule="evenodd" d="M12.0706 0.0201636C12.6627 0.0279761 13.3174 0.0576636 13.5237 0.0889136C13.7299 0.120164 14.1096 0.187351 14.3674 0.238914C14.6252 0.290476 15.0581 0.396726 15.3284 0.474851C15.5987 0.552976 16.0206 0.690476 16.2659 0.781101C16.5112 0.871726 16.9752 1.07798 17.2971 1.23735C17.619 1.39829 18.0831 1.65298 18.3284 1.8061C18.5737 1.95766 18.9846 2.24204 19.2424 2.43579C19.5002 2.62954 19.9924 3.06235 20.3377 3.39673C20.6815 3.73266 21.1174 4.19673 21.3065 4.42954C21.494 4.66079 21.8112 5.0936 22.0081 5.39048C22.2065 5.68735 22.5315 6.2561 22.7299 6.6561C22.9284 7.0561 23.1612 7.57173 23.244 7.80454C23.3284 8.03579 23.4581 8.43735 23.5331 8.69516C23.6065 8.95298 23.7096 9.37485 23.7612 9.63266C23.8127 9.89048 23.8893 10.3749 23.9315 10.7108C23.9909 11.1702 24.0049 11.5436 23.9862 12.2342C23.9721 12.8045 23.9284 13.378 23.869 13.7577C23.8174 14.092 23.7112 14.6202 23.6331 14.9295C23.5549 15.2389 23.4002 15.7452 23.2909 16.0545C23.1815 16.3639 22.9284 16.9436 22.7299 17.3436C22.5315 17.7436 22.2002 18.3233 21.9924 18.6327C21.7862 18.942 21.4487 19.3952 21.244 19.6405C21.0393 19.8858 20.6112 20.3389 20.2909 20.6483C19.9721 20.9592 19.5002 21.3702 19.2424 21.5639C18.9846 21.7577 18.5737 22.0405 18.3284 22.192C18.0831 22.3436 17.619 22.5998 17.2971 22.7608C16.9752 22.9217 16.4424 23.1499 16.1127 23.2686C15.7846 23.3874 15.2674 23.5467 14.9643 23.6233C14.6627 23.6983 14.2237 23.792 13.9924 23.8295C13.7596 23.867 13.3706 23.9233 13.1252 23.9545C12.8424 23.9905 12.3456 24.003 11.7659 23.9874C11.2627 23.9748 10.6831 23.9389 10.4768 23.9092C10.2706 23.8795 9.89087 23.8124 9.63306 23.7592C9.37524 23.7061 8.98462 23.6139 8.76587 23.553C8.54712 23.492 8.17681 23.3764 7.94556 23.2952C7.71274 23.2139 7.20649 22.9967 6.82056 22.8092C6.43306 22.6233 5.90649 22.3374 5.64868 22.1764C5.39087 22.0139 4.97993 21.7295 4.73462 21.5467C4.48931 21.3624 4.00806 20.9374 3.66274 20.6014C3.31743 20.267 2.87368 19.792 2.67681 19.5467C2.47993 19.3014 2.17837 18.8905 2.00649 18.6327C1.83618 18.3749 1.59243 17.9733 1.46743 17.742C1.34243 17.5092 1.13149 17.078 1.00024 16.7811C0.867432 16.4842 0.675244 15.978 0.573682 15.6561C0.470557 15.3342 0.331494 14.8061 0.265869 14.4842C0.200244 14.1624 0.112744 13.6405 0.0736816 13.3233C0.0330566 13.0077 0.000244141 12.417 0.000244141 12.0108C0.000244141 11.6061 0.0330566 11.0202 0.0705566 10.7108C0.109619 10.4014 0.162744 10.0217 0.190869 9.86704C0.217432 9.71235 0.301807 9.3436 0.375244 9.04673C0.450244 8.74985 0.576807 8.31704 0.656494 8.08579C0.734619 7.85298 0.898682 7.44204 1.01899 7.17173C1.14087 6.90141 1.34243 6.48891 1.46743 6.25766C1.59399 6.02485 1.82837 5.63579 1.98931 5.39048C2.14868 5.14516 2.45024 4.73423 2.65806 4.47641C2.86587 4.2186 3.31743 3.73266 3.66274 3.39829C4.00806 3.06235 4.48931 2.63735 4.73462 2.45298C4.97993 2.27016 5.37993 1.99204 5.62524 1.83891C5.87056 1.68423 6.30181 1.44204 6.58618 1.29985C6.86899 1.15766 7.23931 0.982664 7.40649 0.912351C7.57368 0.842039 7.89087 0.723289 8.10962 0.648289C8.32837 0.573289 8.75024 0.449851 9.04712 0.374851C9.34399 0.299851 9.80806 0.202976 10.0784 0.162351C10.3487 0.121726 10.6659 0.0701636 10.7815 0.0482886C10.8971 0.0264136 11.4768 0.0139136 12.0706 0.0201636ZM9.45024 6.19048C9.35024 6.25298 9.21274 6.39985 9.14556 6.51548L9.02368 6.72641L9.00024 11.0155C7.84243 11.0139 7.78931 11.0217 7.55024 11.1436C7.38462 11.228 7.25337 11.3374 7.17524 11.4577C7.07212 11.6139 7.05493 11.6952 7.05493 11.9999C7.05493 12.3045 7.07212 12.3858 7.17524 12.542C7.25337 12.6624 7.38462 12.7717 7.55024 12.8561C7.78931 12.978 7.84243 12.9858 8.40181 12.9842H9.00024V14.0155C7.86431 14.0139 7.78149 14.0249 7.57056 14.128C7.42368 14.1999 7.28306 14.317 7.19556 14.442C7.06899 14.6217 7.05493 14.6749 7.05493 15.003C7.05493 15.3311 7.06899 15.3858 7.19556 15.5655C7.27212 15.6749 7.42056 15.8092 7.52368 15.8624C7.68306 15.9467 7.80806 15.9624 8.35493 15.9733L9.00024 15.9842C9.02368 17.2358 9.03149 17.2858 9.15181 17.4967C9.23306 17.6358 9.35493 17.7608 9.47993 17.8327C9.59087 17.8967 9.76431 17.9624 9.86743 17.9795C9.99087 18.0014 10.1346 17.9858 10.2893 17.9358C10.4206 17.8952 10.5909 17.7936 10.6737 17.7077C10.7565 17.6233 10.8565 17.4749 10.8956 17.3795C10.9487 17.2514 10.969 17.0374 10.969 16.5936V15.9842C13.1674 15.9858 13.2018 15.9827 13.4299 15.8717C13.5784 15.7983 13.7159 15.6827 13.8049 15.5561C13.8971 15.4249 13.9518 15.2842 13.9627 15.1436C13.9737 15.0264 13.9674 14.8499 13.9518 14.7545C13.9331 14.6452 13.8549 14.503 13.7456 14.3827C13.6502 14.2764 13.4862 14.1499 13.3831 14.103C13.219 14.028 13.0581 14.017 12.0815 14.017L10.969 14.0155V12.9842C13.5237 12.9842 13.9065 12.9686 14.1924 12.9092C14.3909 12.8686 14.6815 12.7827 14.8362 12.717C14.9909 12.653 15.2549 12.5092 15.4221 12.3983C15.5893 12.2874 15.8643 12.0514 16.0315 11.8733C16.1987 11.6952 16.4159 11.4139 16.5127 11.2467C16.6112 11.0811 16.7471 10.7764 16.8159 10.5702C16.9315 10.2295 16.9424 10.1311 16.9424 9.49204C16.9424 8.84985 16.9315 8.7561 16.8143 8.41391C16.7456 8.20766 16.6065 7.90141 16.5065 7.73423C16.4065 7.56704 16.2112 7.30454 16.0721 7.15298C15.9346 7.00141 15.694 6.78735 15.5393 6.67798C15.3846 6.5686 15.1471 6.42485 15.0112 6.35766C14.8768 6.28891 14.6127 6.18735 14.4252 6.1311C14.1002 6.03266 13.994 6.02798 11.9768 6.01704C10.8159 6.01079 9.81431 6.02016 9.75024 6.04048C9.68618 6.05923 9.55024 6.12798 9.45024 6.19048ZM10.9752 7.96235L12.4127 7.97798C13.8424 7.99204 13.8534 7.9936 14.1096 8.11079C14.2518 8.17798 14.4518 8.31391 14.5565 8.41548C14.6596 8.5186 14.7971 8.70766 14.8596 8.83579C14.944 9.00454 14.9799 9.1686 14.9924 9.42173C15.0049 9.70454 14.9877 9.82954 14.9002 10.0545C14.8315 10.2342 14.7159 10.4124 14.5799 10.5483C14.4627 10.6655 14.2612 10.8124 14.1331 10.8764C13.9002 10.9905 13.8846 10.992 10.969 11.0155L10.9752 7.96235Z" fill="white"/>
</g>
<defs>
<clipPath id="clip0_272_549">
<rect width="24" height="24" fill="white" transform="translate(0.000244141)"/>
</clipPath>
</defs>
</svg>
