<svg width="25" height="24" viewBox="0 0 25 24" fill="none" xmlns="http://www.w3.org/2000/svg">
<path fill-rule="evenodd" clip-rule="evenodd" d="M21.0117 11.5C21.0117 16.3325 17.0942 20.25 12.2617 20.25C7.42923 20.25 3.51172 16.3325 3.51172 11.5C3.51172 6.66751 7.42923 2.75 12.2617 2.75C17.0942 2.75 21.0117 6.66751 21.0117 11.5ZM12.2617 21.75C17.9226 21.75 22.5117 17.1609 22.5117 11.5C22.5117 5.83908 17.9226 1.25 12.2617 1.25C6.6008 1.25 2.01172 5.83908 2.01172 11.5C2.01172 17.1609 6.6008 21.75 12.2617 21.75ZM21.292 19.4697C20.9992 19.1768 20.5243 19.1768 20.2314 19.4697C19.9385 19.7626 19.9385 20.2374 20.2314 20.5303L22.2314 22.5303C22.5243 22.8232 22.9991 22.8232 23.292 22.5303C23.5849 22.2374 23.5849 21.7625 23.292 21.4696L21.292 19.4697Z" fill="white"/>
</svg>
