<svg width="128" height="25" viewBox="0 0 128 25" fill="none" xmlns="http://www.w3.org/2000/svg">
<path d="M12 2.44238L14.2451 9.35221H21.5106L15.6327 13.6227L17.8779 20.5326L12 16.262L6.12215 20.5326L8.36729 13.6227L2.48944 9.35221H9.75486L12 2.44238Z" fill="#037C6A"/>
<path d="M38 2.44238L40.2451 9.35221H47.5106L41.6327 13.6227L43.8779 20.5326L38 16.262L32.1221 20.5326L34.3673 13.6227L28.4894 9.35221H35.7549L38 2.44238Z" fill="#037C6A"/>
<path d="M64 2.44238L66.2451 9.35221H73.5106L67.6327 13.6227L69.8779 20.5326L64 16.262L58.1221 20.5326L60.3673 13.6227L54.4894 9.35221H61.7549L64 2.44238Z" fill="#037C6A"/>
<path d="M90 2.44238L92.2451 9.35221H99.5106L93.6327 13.6227L95.8779 20.5326L90 16.262L84.1221 20.5326L86.3673 13.6227L80.4894 9.35221H87.7549L90 2.44238Z" fill="#037C6A"/>
<path d="M116 2.44238L118.245 9.35221H125.511L119.633 13.6227L121.878 20.5326L116 16.262L110.122 20.5326L112.367 13.6227L106.489 9.35221H113.755L116 2.44238Z" fill="#037C6A"/>
</svg>
