<svg width="24" height="25" viewBox="0 0 24 25" fill="none" xmlns="http://www.w3.org/2000/svg">
<g clip-path="url(#clip0_34_1131)">
<path fill-rule="evenodd" clip-rule="evenodd" d="M24 12.4424C24 19.0698 18.6274 24.4424 12 24.4424C5.37258 24.4424 0 19.0698 0 12.4424C0 5.81497 5.37258 0.442383 12 0.442383C18.6274 0.442383 24 5.81497 24 12.4424ZM12.43 9.30131C11.2628 9.78678 8.93014 10.7916 5.43189 12.3157C4.86383 12.5416 4.56626 12.7626 4.53917 12.9787C4.49339 13.3439 4.95071 13.4877 5.57347 13.6835C5.65818 13.7101 5.74595 13.7377 5.83594 13.767C6.44864 13.9662 7.27283 14.1992 7.70129 14.2084C8.08994 14.2168 8.52373 14.0566 9.00264 13.7277C12.2712 11.5214 13.9584 10.4062 14.0643 10.3822C14.139 10.3652 14.2426 10.3439 14.3128 10.4062C14.3829 10.4686 14.376 10.5867 14.3686 10.6184C14.3233 10.8115 12.5281 12.4805 11.5991 13.3442C11.3095 13.6134 11.1041 13.8044 11.0621 13.848C10.968 13.9457 10.8721 14.0382 10.78 14.127C10.2108 14.6757 9.78391 15.0872 10.8036 15.7592C11.2936 16.0821 11.6858 16.3491 12.077 16.6155C12.5042 16.9065 12.9303 17.1966 13.4816 17.558C13.6221 17.6501 13.7562 17.7458 13.8869 17.8389C14.3841 18.1934 14.8307 18.5118 15.3826 18.461C15.7032 18.4315 16.0345 18.13 16.2027 17.2307C16.6002 15.1055 17.3816 10.5008 17.5622 8.60336C17.578 8.43711 17.5581 8.22435 17.5422 8.13096C17.5262 8.03756 17.4928 7.90449 17.3714 7.80598C17.2276 7.68932 17.0056 7.66472 16.9064 7.66647C16.455 7.67442 15.7626 7.9152 12.43 9.30131Z" fill="white"/>
</g>
<defs>
<clipPath id="clip0_34_1131">
<rect width="24" height="24" fill="white" transform="translate(0 0.442383)"/>
</clipPath>
</defs>
</svg>
