<svg width="32" height="33" viewBox="0 0 32 33" fill="none" xmlns="http://www.w3.org/2000/svg">
<path d="M29.3334 16.4427V9.10937C29.3334 5.79567 26.6471 3.10938 23.3334 3.10938H8.66675C5.35304 3.10938 2.66675 5.79566 2.66675 9.10937V23.776C2.66675 27.0897 5.35304 29.776 8.66675 29.776H12.0001" stroke="white" strokeLinecap="round"/>
<path d="M16 9.77539V16.4421L12 17.7754" stroke="white" strokeLinecap="round" strokeLinejoin="round"/>
<path d="M15.9998 25.1087V24.4421C15.9998 22.9693 17.1937 21.7754 18.6664 21.7754V21.7754C20.1392 21.7754 21.3331 22.9693 21.3331 24.4421V24.4421C21.3331 25.2814 20.9379 26.0718 20.2664 26.5754L15.9998 29.7754H21.3331" stroke="white" strokeLinecap="round" strokeLinejoin="round"/>
<path d="M24 21.7754V22.7754C24 24.4322 25.3431 25.7754 27 25.7754H29.3333M29.3333 25.7754V21.7754M29.3333 25.7754V29.7754" stroke="white" strokeLinecap="round" strokeLinejoin="round"/>
<path d="M29.3334 16.4421L26.6667 13.7754" stroke="white" strokeLinecap="round" strokeLinejoin="round"/>
</svg>
