<svg width="28" height="20" viewBox="0 0 28 20" fill="none" xmlns="http://www.w3.org/2000/svg">
<g clip-path="url(#clip0_98_3164)">
<path fill-rule="evenodd" clip-rule="evenodd" d="M0.761719 0H38.7617V1.54167H0.761719V0ZM0.761719 3.07917H38.7617V4.62083H0.761719V3.07917ZM0.761719 6.15417H38.7617V7.69583H0.761719V6.15417ZM0.761719 9.22917H38.7617V10.7708H0.761719V9.22917ZM0.761719 12.3125H38.7617V13.8458H0.761719V12.3125ZM0.761719 15.3833H38.7617V16.925H0.761719V15.3833ZM0.761719 18.4583H38.7617V20H0.761719V18.4583Z" fill="#BD3D44"/>
<path fill-rule="evenodd" clip-rule="evenodd" d="M0.761719 1.54166H38.7617V3.07916H0.761719V1.54166ZM0.761719 4.61666H38.7617V6.15416H0.761719V4.61666ZM0.761719 7.69166H38.7617V9.23332H0.761719V7.69166ZM0.761719 10.7708H38.7617V12.3125H0.761719V10.7708ZM0.761719 13.8458H38.7617V15.3875H0.761719V13.8458ZM0.761719 16.9208H38.7617V18.4625H0.761719V16.9208Z" fill="white"/>
<path fill-rule="evenodd" clip-rule="evenodd" d="M0.761719 0H15.9617V10.7708H0.761719V0Z" fill="#192F5D"/>
<path fill-rule="evenodd" clip-rule="evenodd" d="M2.02842 0.458374L2.17008 0.887541H2.61175L2.25342 1.15004L2.39092 1.57921L2.02842 1.31254L1.67008 1.57504L1.80342 1.15004L1.44092 0.887541H1.89508L2.02842 0.458374ZM4.56175 0.458374L4.69925 0.887541H5.14925L4.78675 1.15004L4.92008 1.57921L4.56175 1.31254L4.19925 1.57504L4.33675 1.15004L3.97842 0.887541H4.42008L4.56175 0.458374ZM7.09508 0.458374L7.23258 0.887541H7.67842L7.32008 1.15004L7.45758 1.57921L7.09508 1.31254L6.73258 1.57504L6.87008 1.15004L6.50758 0.887541H6.95758L7.09508 0.458374ZM9.62842 0.458374L9.76592 0.887541H10.2159L9.85342 1.15004L9.99092 1.57921L9.62842 1.31254L9.26592 1.57504L9.40758 1.15004L9.04092 0.887541H9.48675L9.62842 0.458374ZM12.1618 0.458374L12.2993 0.887541H12.7451L12.3868 1.15004L12.5243 1.57921L12.1618 1.31254L11.7993 1.57504L11.9368 1.15004L11.5784 0.887541H12.0243L12.1618 0.458374ZM14.6951 0.458374L14.8326 0.887541H15.2826L14.9159 1.15004L15.0576 1.57921L14.6951 1.31254L14.3326 1.57504L14.4743 1.15004L14.1076 0.887541H14.5576L14.6951 0.458374ZM3.29508 1.54171L3.43258 1.96671H3.88675L3.52425 2.22504L3.65758 2.65421L3.30342 2.39171L2.94092 2.65421L3.07008 2.22504L2.72008 1.96671H3.16592L3.29508 1.54171ZM5.82842 1.54171L5.97008 1.96671H6.41592L6.04925 2.22504L6.19092 2.65421L5.82842 2.39171L5.46592 2.65421L5.60342 2.22504L5.24092 1.96671H5.69092L5.82842 1.54171ZM8.36175 1.54171L8.49925 1.96671H8.94925L8.58675 2.22504L8.72425 2.65421L8.36175 2.39171L7.99925 2.65421L8.13675 2.22504L7.77842 1.96671H8.22008L8.36175 1.54171ZM10.8951 1.54171L11.0368 1.96671H11.4826L11.1159 2.22504L11.2576 2.65421L10.8951 2.39171L10.5368 2.65421L10.6701 2.22504L10.3076 1.96671H10.7618L10.8951 1.54171ZM13.4284 1.54171L13.5659 1.96671H14.0159L13.6534 2.22504L13.7909 2.65421L13.4284 2.39171L13.0659 2.65421L13.2034 2.22504L12.8451 1.96671H13.2909L13.4284 1.54171ZM2.02842 2.60837L2.17008 3.04171H2.61175L2.25342 3.30421L2.39092 3.72921L2.02842 3.46671L1.67008 3.72921L1.80342 3.30421L1.44092 3.04171H1.89508L2.02842 2.60837ZM4.56175 2.60837L4.69925 3.04171H5.14925L4.78675 3.30421L4.92008 3.72921L4.56175 3.46671L4.19925 3.72921L4.33675 3.30004L3.97842 3.03754H4.42008L4.56175 2.60837ZM7.09508 2.60837L7.23258 3.03754H7.67842L7.32008 3.30004L7.45758 3.72504L7.09508 3.46254L6.73258 3.72504L6.87008 3.29587L6.50758 3.03337H6.95758L7.09508 2.60837ZM9.62842 2.60837L9.76592 3.03754H10.2159L9.85342 3.30004L9.99092 3.72504L9.62842 3.46254L9.26592 3.72504L9.40758 3.29587L9.04092 3.03337H9.48675L9.62842 2.60837ZM12.1618 2.60837L12.2993 3.03754H12.7451L12.3868 3.30004L12.5243 3.72504L12.1618 3.46254L11.7993 3.72504L11.9368 3.29587L11.5784 3.03337H12.0243L12.1618 2.60837ZM14.6951 2.60837L14.8326 3.03754H15.2826L14.9159 3.30004L15.0576 3.72504L14.6951 3.46254L14.3326 3.72504L14.4743 3.29587L14.1076 3.03337H14.5576L14.6951 2.60837ZM3.29508 3.69171L3.43258 4.11671H3.88675L3.52425 4.37921L3.66175 4.80837L3.29925 4.54171L2.93675 4.80421L3.07425 4.37921L2.71592 4.11671H3.16175L3.29508 3.69171ZM5.82842 3.69171L5.97008 4.11671H6.41592L6.04925 4.37921L6.19092 4.80837L5.82842 4.54171L5.46592 4.80421L5.60342 4.37921L5.24092 4.11671H5.69092L5.82842 3.69171ZM8.36175 3.69171L8.49925 4.11671H8.94925L8.58675 4.37921L8.72425 4.80837L8.36175 4.54171L7.99925 4.80421L8.13675 4.37921L7.77842 4.11671H8.22008L8.36175 3.69171ZM10.8951 3.69171L11.0368 4.11671H11.4826L11.1201 4.37921L11.2576 4.80837L10.8951 4.54171L10.5368 4.80421L10.6701 4.37921L10.3076 4.11671H10.7618L10.8951 3.69171ZM13.4284 3.69171L13.5659 4.11671H14.0159L13.6534 4.37921L13.7909 4.80837L13.4284 4.54171L13.0659 4.80421L13.2034 4.37921L12.8451 4.11671H13.2909L13.4284 3.69171ZM2.02842 4.77087L2.17008 5.19587H2.61175L2.25342 5.45837L2.39092 5.88754L2.02842 5.62087L1.67008 5.88337L1.80342 5.45837L1.44092 5.19587H1.89508L2.02842 4.77087ZM4.56175 4.77087L4.69925 5.19587H5.14925L4.78675 5.45837L4.92008 5.88337L4.56175 5.62087L4.19925 5.88337L4.33675 5.45837L3.97842 5.19587H4.42008L4.56175 4.77087ZM7.09508 4.77087L7.23258 5.19587H7.67842L7.32008 5.45837L7.45758 5.88754L7.09508 5.62087L6.73258 5.88337L6.87008 5.45837L6.50758 5.19587H6.95758L7.09508 4.77087ZM9.62842 4.77087L9.76592 5.19587H10.2159L9.85342 5.45837L9.99092 5.88754L9.62842 5.62087L9.26592 5.88337L9.40758 5.45837L9.04092 5.19587H9.48675L9.62842 4.77087ZM12.1618 4.77087L12.2993 5.19587H12.7451L12.3868 5.45837L12.5243 5.88754L12.1618 5.62087L11.7993 5.88337L11.9368 5.45837L11.5784 5.19587H12.0243L12.1618 4.77087ZM14.6951 4.77087L14.8326 5.19587H15.2826L14.9159 5.45837L15.0576 5.88754L14.6951 5.62087L14.3326 5.88337L14.4701 5.45837L14.1034 5.19587H14.5534L14.6951 4.77087ZM3.29508 5.84587L3.43258 6.27504H3.88675L3.52425 6.53337L3.66175 6.96254L3.29925 6.69587L2.93675 6.96254L3.07425 6.53337L2.71592 6.27087H3.16175L3.29508 5.84587ZM5.82842 5.84587L5.97008 6.27504H6.41592L6.04925 6.53337L6.19092 6.96254L5.82842 6.69587L5.46592 6.96254L5.60342 6.53337L5.24092 6.27087H5.69092L5.82842 5.84587ZM8.36175 5.84587L8.49925 6.27504H8.94925L8.58675 6.53337L8.72425 6.96254L8.36175 6.69587L7.99925 6.96254L8.13675 6.53337L7.77842 6.27087H8.22008L8.36175 5.84587ZM10.8951 5.84587L11.0368 6.27504H11.4826L11.1201 6.53337L11.2576 6.96254L10.8951 6.69587L10.5368 6.96254L10.6701 6.53337L10.3076 6.27087H10.7618L10.8951 5.84587ZM13.4284 5.84587L13.5659 6.27504H14.0159L13.6534 6.53337L13.7909 6.96254L13.4284 6.69587L13.0659 6.96254L13.2034 6.53337L12.8451 6.27087H13.2909L13.4284 5.84587ZM2.02842 6.92087L2.17008 7.35004H2.61175L2.25342 7.61254L2.39092 8.03337L2.02842 7.77504L1.67008 8.03337L1.80342 7.60837L1.44092 7.34587H1.89508L2.02842 6.92087ZM4.56175 6.92087L4.69925 7.35004H5.14925L4.78675 7.61254L4.92425 8.03337L4.56175 7.77504L4.19925 8.03337L4.34092 7.60837L3.97842 7.34587H4.42008L4.56175 6.92087ZM7.09508 6.92087L7.23258 7.35004H7.67842L7.32008 7.61254L7.45758 8.03337L7.09508 7.77504L6.73258 8.03337L6.87008 7.60837L6.50758 7.34587H6.95758L7.09508 6.92087ZM9.62842 6.92087L9.76592 7.35004H10.2159L9.85342 7.61254L9.99092 8.03337L9.62842 7.77504L9.26592 8.03337L9.40758 7.60837L9.04092 7.34587H9.48675L9.62842 6.92087ZM12.1618 6.92087L12.2993 7.35004H12.7451L12.3868 7.61254L12.5243 8.03337L12.1618 7.77504L11.7993 8.03337L11.9368 7.60837L11.5784 7.34587H12.0243L12.1618 6.92087ZM14.6951 6.92087L14.8326 7.35004H15.2826L14.9159 7.61254L15.0576 8.03337L14.6951 7.77504L14.3326 8.03337L14.4743 7.60837L14.1076 7.34587H14.5576L14.6951 6.92087ZM3.29508 8.00004L3.43258 8.42504H3.88675L3.52425 8.68754L3.66175 9.11671L3.29925 8.85004L2.93675 9.11254L3.07425 8.68754L2.71592 8.42504H3.16175L3.29508 8.00004ZM5.82842 8.00004L5.97008 8.42504H6.41592L6.04925 8.68754L6.19092 9.11671L5.82842 8.85004L5.46592 9.11254L5.60342 8.68754L5.24092 8.42504H5.69092L5.82842 8.00004ZM8.36175 8.00004L8.49925 8.42504H8.94925L8.58675 8.68754L8.72425 9.11671L8.36175 8.85004L7.99925 9.11254L8.13675 8.68754L7.77842 8.42504H8.22008L8.36175 8.00004ZM10.8951 8.00004L11.0368 8.42504H11.4826L11.1201 8.68754L11.2576 9.11671L10.8951 8.85004L10.5368 9.11254L10.6701 8.68754L10.3076 8.42504H10.7618L10.8951 8.00004ZM13.4284 8.00004L13.5659 8.42504H14.0159L13.6534 8.68754L13.7909 9.11671L13.4284 8.85004L13.0659 9.11254L13.2034 8.68754L12.8451 8.42504H13.2909L13.4284 8.00004ZM2.02842 9.07921L2.17008 9.50421H2.61175L2.25342 9.76671L2.39092 10.1917L2.02842 9.92921L1.67008 10.1917L1.80342 9.76254L1.44092 9.50004H1.89508L2.02842 9.07921ZM4.56175 9.07921L4.69925 9.50421H5.14925L4.78675 9.76671L4.92425 10.1917L4.56175 9.92921L4.19925 10.1917L4.34092 9.76254L3.97842 9.50004H4.42008L4.56175 9.07921ZM7.09508 9.07921L7.23258 9.50421H7.67842L7.32842 9.76671L7.46592 10.1917L7.10342 9.92921L6.74092 10.1917L6.87842 9.76254L6.51592 9.50004H6.96592L7.09508 9.07921ZM9.62842 9.07921L9.76592 9.50421H10.2159L9.85342 9.76671L9.99092 10.1917L9.62842 9.92921L9.26592 10.1917L9.40758 9.76254L9.04092 9.50004H9.48675L9.62842 9.07921ZM12.1618 9.07921L12.2993 9.50421H12.7451L12.3868 9.76671L12.5243 10.1917L12.1618 9.92921L11.7993 10.1917L11.9368 9.76254L11.5784 9.50004H12.0243L12.1618 9.07921ZM14.6951 9.07921L14.8326 9.50421H15.2826L14.9159 9.76671L15.0576 10.1917L14.6951 9.92921L14.3326 10.1917L14.4743 9.76254L14.1076 9.50004H14.5576L14.6951 9.07921Z" fill="white"/>
</g>
<defs>
<clipPath id="clip0_98_3164">
<rect x="0.761719" width="26.6667" height="20" rx="4" fill="white"/>
</clipPath>
</defs>
</svg>
