<svg width="25" height="24" viewBox="0 0 25 24" fill="none" xmlns="http://www.w3.org/2000/svg">
<path fill-rule="evenodd" clip-rule="evenodd" d="M12.9297 0.00625402C13.6438 0.00156652 14.0203 0.021879 14.5125 0.093754C14.8656 0.145317 15.3625 0.232817 15.6141 0.285942C15.8641 0.340629 16.3344 0.470316 16.6562 0.573442C16.9781 0.676566 17.4844 0.865629 17.7812 0.993754C18.0781 1.12032 18.5203 1.3375 18.7656 1.475C19.0109 1.61407 19.4 1.85 19.6328 2.00313C19.8641 2.15625 20.2656 2.45 20.5234 2.65782C20.7812 2.86719 21.2297 3.27657 21.5187 3.56875C21.8078 3.8625 22.1875 4.28125 22.3625 4.5C22.5391 4.71875 22.8219 5.10938 22.9922 5.36719C23.1641 5.625 23.4016 6.01563 23.5219 6.23438C23.6438 6.45313 23.8531 6.88594 23.9906 7.19532C24.1281 7.50469 24.3234 8.02188 24.4266 8.34375C24.5297 8.66563 24.6578 9.12969 24.7109 9.375C24.7641 9.62032 24.85 10.1203 24.9031 10.4891C24.9719 10.9578 25 11.3969 25 11.9656C25 12.4234 24.9688 13.0172 24.9281 13.3359C24.8875 13.6453 24.8031 14.1563 24.7406 14.4734C24.6766 14.7891 24.5187 15.3688 24.3906 15.7625C24.2594 16.1609 24.0047 16.7875 23.8125 17.1797C23.625 17.5672 23.3375 18.0938 23.175 18.3516C23.0141 18.6094 22.7375 19.0094 22.5609 19.2422C22.3859 19.4734 22.0766 19.8438 21.875 20.0625C21.6734 20.2813 21.3172 20.6375 21.0859 20.8531C20.8531 21.0688 20.4641 21.3969 20.2188 21.5813C19.9734 21.7656 19.5828 22.0344 19.3516 22.1781C19.1187 22.3219 18.75 22.5328 18.5312 22.6484C18.3125 22.7641 17.9328 22.9453 17.6875 23.0484C17.4422 23.1531 16.9781 23.3234 16.6562 23.4266C16.3344 23.5297 15.8641 23.6594 15.6125 23.7141C15.3625 23.7672 14.8656 23.8547 14.5109 23.9063C14.0516 23.9734 13.6187 24 13 24C12.3625 24 11.9594 23.975 11.4766 23.9031C11.1156 23.85 10.6203 23.7641 10.375 23.7109C10.1297 23.6594 9.6125 23.5125 9.22656 23.3844C8.83906 23.2563 8.20625 22.9969 7.82031 22.8094C7.43281 22.6234 6.92656 22.3516 6.69531 22.2078C6.4625 22.0641 6.08281 21.8047 5.85156 21.6297C5.61875 21.4563 5.34531 21.2406 5.24219 21.1516C5.13906 21.0625 4.82656 20.7641 4.54688 20.4906C4.26719 20.2172 3.87656 19.7922 3.67812 19.5469C3.47969 19.3016 3.17812 18.8906 3.00781 18.6328C2.8375 18.375 2.59219 17.9734 2.46563 17.7422C2.3375 17.5094 2.14219 17.1203 2.03281 16.875C1.92188 16.6297 1.73125 16.1234 1.60781 15.75C1.48438 15.3766 1.34062 14.8703 1.28906 14.625C1.23594 14.3797 1.15 13.8797 1.09687 13.5109C1.02812 13.0422 1 12.6031 1 12.0344C1 11.5766 1.03125 10.9828 1.07187 10.6641C1.1125 10.3547 1.19688 9.84375 1.25938 9.52657C1.32344 9.21094 1.47812 8.64219 1.60312 8.26094C1.72969 7.88125 1.93125 7.34844 2.05313 7.07813C2.175 6.80782 2.40156 6.36407 2.55781 6.09375C2.7125 5.82344 2.97969 5.40157 3.15 5.15625C3.32031 4.91094 3.60938 4.53125 3.79219 4.3125C3.975 4.09375 4.34531 3.69844 4.6125 3.43438C4.88125 3.17188 5.28125 2.8125 5.5 2.6375C5.71875 2.46094 6.10938 2.17813 6.36719 2.00782C6.625 1.8375 7.025 1.59219 7.25781 1.46563C7.48906 1.3375 7.87969 1.14219 8.125 1.03282C8.37031 0.921879 8.87656 0.731254 9.25 0.607817C9.62344 0.484379 10.1406 0.339067 10.3984 0.284379C10.6562 0.229692 11.1203 0.146879 11.4297 0.0984415C11.8219 0.037504 12.275 0.00937902 12.9297 0.00625402ZM12.0828 3.94532C12.0594 3.97969 12.0281 4.34844 12.0156 4.76407C11.9953 5.4375 11.9812 5.53282 11.8984 5.62188C11.8469 5.67657 11.6141 5.79688 11.3828 5.8875C11.15 5.97969 10.8234 6.12813 10.6562 6.22032C10.4891 6.31094 10.2359 6.47813 10.0938 6.58907C9.95156 6.70157 9.75156 6.89375 9.64844 7.01719C9.54688 7.14063 9.39844 7.34844 9.32031 7.47657C9.24219 7.60625 9.11719 7.89063 9.04375 8.10938C8.93125 8.44219 8.90469 8.60782 8.88594 9.11719C8.86875 9.58594 8.88125 9.79688 8.94063 10.0313C8.98281 10.1984 9.0875 10.4828 9.175 10.6641C9.27812 10.8766 9.45781 11.125 9.68281 11.3672C9.875 11.5734 10.1891 11.85 10.3797 11.9828C10.5703 12.1141 10.8953 12.3078 11.1016 12.4109C11.3078 12.5141 11.8672 12.7609 12.3438 12.9578C12.8203 13.1547 13.3484 13.3969 13.5156 13.4953C13.6828 13.5938 13.9109 13.7781 14.0219 13.9031C14.1562 14.0547 14.25 14.2203 14.2984 14.3906C14.3562 14.5984 14.3609 14.6938 14.3188 14.8828C14.2906 15.0125 14.2031 15.2063 14.1266 15.3172C14.0484 15.4266 13.9047 15.5672 13.8078 15.6297C13.7125 15.6922 13.4953 15.7906 13.3281 15.8484C13.0875 15.9313 12.9156 15.9531 12.5078 15.9547C12.1828 15.9563 11.8453 15.925 11.5938 15.8719C11.375 15.825 11.0266 15.7344 10.8203 15.6688C10.6141 15.6047 10.2391 15.4594 9.9875 15.3469C9.72813 15.2297 9.49063 15.15 9.4375 15.1641C9.38594 15.1766 9.31406 15.2344 9.27656 15.2938C9.23906 15.3516 9.11094 15.7359 8.99219 16.1484C8.87187 16.5609 8.77031 16.9859 8.76562 17.0922C8.76094 17.2297 8.78594 17.3172 8.85156 17.3906C8.90312 17.4484 9.06719 17.5563 9.21406 17.6297C9.3625 17.7047 9.66875 17.8281 9.89375 17.9031C10.1203 17.9797 10.6203 18.1063 11.0078 18.1844C11.3953 18.2641 11.7312 18.35 11.7578 18.3766C11.7828 18.4047 11.8156 18.7578 11.8313 19.1625C11.8484 19.6891 11.875 19.9281 11.925 20.0031C11.9609 20.0594 12.0391 20.1281 12.0984 20.1547C12.1562 20.1813 12.5203 20.2031 12.9062 20.2031C13.2937 20.2031 13.6562 20.1813 13.7156 20.1547C13.7734 20.1281 13.85 20.0594 13.8859 20.0031C13.9313 19.9297 13.9563 19.6688 13.9719 19.125C13.9875 18.6313 14.0156 18.3172 14.0531 18.2578C14.0844 18.2063 14.1922 18.1297 14.2937 18.0875C14.3938 18.0453 14.6234 17.9563 14.8047 17.8891C14.9844 17.8219 15.2703 17.6875 15.4375 17.5906C15.6156 17.4891 15.9297 17.2297 16.1906 16.9703C16.5766 16.5875 16.6719 16.4594 16.8594 16.0781C16.9797 15.8328 17.1141 15.4953 17.1578 15.3281C17.2109 15.1266 17.2375 14.8406 17.2375 14.4844C17.2375 14.0641 17.2141 13.8625 17.1313 13.5703C17.0719 13.3641 16.95 13.0469 16.8578 12.8672C16.7672 12.6859 16.6031 12.4234 16.4922 12.2813C16.3828 12.1391 16.1906 11.9281 16.0641 11.8109C15.9391 11.6938 15.7406 11.5328 15.625 11.4531C15.5094 11.3734 15.2031 11.2031 14.9453 11.0734C14.6875 10.9438 14.1391 10.6969 13.7266 10.525C13.3141 10.3516 12.8391 10.1344 12.6719 10.0406C12.5047 9.94844 12.275 9.78594 12.1625 9.68282C12.05 9.57813 11.9187 9.4125 11.8687 9.31719C11.8203 9.22032 11.7812 9.04532 11.7812 8.92969C11.7812 8.81407 11.8203 8.63907 11.8687 8.54375C11.9156 8.44688 12.0375 8.29844 12.1375 8.21407C12.2375 8.13125 12.4156 8.02813 12.5312 7.9875C12.6469 7.94532 12.9641 7.9 13.2344 7.8875C13.5859 7.86875 13.8672 7.88594 14.2188 7.94532C14.4891 7.99063 14.8484 8.075 15.0156 8.13282C15.1828 8.19063 15.4469 8.29375 15.6016 8.3625C15.7563 8.43125 15.925 8.4875 15.9766 8.4875C16.0281 8.4875 16.1062 8.45 16.1484 8.40313C16.1922 8.35782 16.2516 8.25625 16.2812 8.17969C16.3109 8.10157 16.4281 7.7125 16.5437 7.3125C16.7203 6.69688 16.7453 6.5625 16.7047 6.43438C16.6672 6.31719 16.6 6.25313 16.4219 6.16407C16.2922 6.1 16.0031 5.98438 15.7766 5.90938C15.5516 5.83282 15.125 5.72813 14.8281 5.675C14.4281 5.60157 14.2641 5.55157 14.1953 5.47969C14.1141 5.39375 14.0984 5.29532 14.075 4.74063C14.0609 4.38907 14.0234 4.05469 13.9922 3.99688C13.9625 3.9375 13.8844 3.86875 13.8203 3.84375C13.7563 3.81719 13.3922 3.79844 13.0109 3.8C12.6313 3.80157 12.2766 3.82188 12.2234 3.84375C12.1703 3.86563 12.1062 3.9125 12.0828 3.94532Z" fill="white"/>
</svg>
