<svg width="28" height="21" viewBox="0 0 28 21" fill="none" xmlns="http://www.w3.org/2000/svg">
<g clip-path="url(#clip0_98_2424)">
<path d="M0.499756 13.7759H27.1664V20.4425H0.499756V13.7759Z" fill="#1EB53A"/>
<path d="M0.499756 0.442383H27.1664V7.10905H0.499756V0.442383Z" fill="#0099B5"/>
<path d="M0.499756 6.84229H27.1664V14.0423H0.499756V6.84229Z" fill="#CE1126"/>
<path d="M0.499756 7.24268H27.1664V13.6427H0.499756V7.24268Z" fill="white"/>
<path d="M6.09922 6.04268C7.4247 6.04268 8.49922 4.96816 8.49922 3.64268C8.49922 2.31719 7.4247 1.24268 6.09922 1.24268C4.77374 1.24268 3.69922 2.31719 3.69922 3.64268C3.69922 4.96816 4.77374 6.04268 6.09922 6.04268Z" fill="white"/>
<path d="M6.89976 6.04268C8.22524 6.04268 9.29976 4.96816 9.29976 3.64268C9.29976 2.31719 8.22524 1.24268 6.89976 1.24268C5.57427 1.24268 4.49976 2.31719 4.49976 3.64268C4.49976 4.96816 5.57427 6.04268 6.89976 6.04268Z" fill="#0099B5"/>
<path d="M11.3817 5.0835L11.2297 5.5395L11.4617 5.6195" fill="white"/>
<path d="M11.3822 5.0835L11.5342 5.5395L11.3022 5.6195" fill="white"/>
<path d="M11.8382 5.41507L11.3576 5.41142L11.3532 5.65679" fill="white"/>
<path d="M11.838 5.41501L11.4513 5.70048L11.3036 5.50456" fill="white"/>
<path d="M10.9244 5.41501L11.3111 5.70048L11.4589 5.50456" fill="white"/>
<path d="M10.9247 5.41507L11.4054 5.41142L11.4098 5.65679" fill="white"/>
<path d="M11.6627 5.95116L11.5176 5.4929L11.2829 5.56455" fill="white"/>
<path d="M11.6635 5.95118L11.2725 5.67162L11.4132 5.47053" fill="white"/>
<path d="M11.0982 5.95118L11.4892 5.67162L11.3486 5.47053" fill="white"/>
<path d="M11.0981 5.95116L11.2431 5.4929L11.4778 5.56455" fill="white"/>
<path d="M11.3817 3.16309L11.2297 3.61909L11.4617 3.69909" fill="white"/>
<path d="M11.3822 3.16309L11.5342 3.61909L11.3022 3.69909" fill="white"/>
<path d="M11.8373 3.49466L11.3566 3.49101L11.3522 3.73638" fill="white"/>
<path d="M11.8371 3.4946L11.4504 3.78007L11.3026 3.58415" fill="white"/>
<path d="M10.9244 3.4946L11.3111 3.78007L11.4589 3.58415" fill="white"/>
<path d="M10.9247 3.49466L11.4054 3.49101L11.4098 3.73638" fill="white"/>
<path d="M11.6637 4.03124L11.5186 3.57298L11.2839 3.64463" fill="white"/>
<path d="M11.664 4.03077L11.273 3.75121L11.4137 3.55012" fill="white"/>
<path d="M11.0987 4.03175L11.4897 3.75218L11.349 3.55109" fill="white"/>
<path d="M11.0981 4.03221L11.2431 3.57396L11.4778 3.6456" fill="white"/>
<path d="M11.3817 1.24316L11.2297 1.69916L11.4617 1.77916" fill="white"/>
<path d="M11.3822 1.24316L11.5342 1.69916L11.3022 1.77916" fill="white"/>
<path d="M11.8373 1.57474L11.3566 1.57109L11.3522 1.81645" fill="white"/>
<path d="M11.8371 1.57468L11.4504 1.86015L11.3026 1.66423" fill="white"/>
<path d="M10.9244 1.57468L11.3111 1.86015L11.4589 1.66423" fill="white"/>
<path d="M10.9247 1.57474L11.4054 1.57109L11.4098 1.81645" fill="white"/>
<path d="M11.6629 2.11132L11.5179 1.65306L11.2831 1.72471" fill="white"/>
<path d="M11.6637 2.11085L11.2727 1.83128L11.4134 1.6302" fill="white"/>
<path d="M11.0975 2.11134L11.4885 1.83177L11.3478 1.63068" fill="white"/>
<path d="M11.0973 2.1118L11.2424 1.65355L11.4771 1.72519" fill="white"/>
<path d="M13.2963 5.0835L13.1443 5.5395L13.3763 5.6195" fill="white"/>
<path d="M13.2962 5.0835L13.4482 5.5395L13.2162 5.6195" fill="white"/>
<path d="M13.753 5.41507L13.2724 5.41142L13.268 5.65679" fill="white"/>
<path d="M13.7528 5.41452L13.3661 5.69999L13.2183 5.50407" fill="white"/>
<path d="M12.8399 5.41501L13.2267 5.70048L13.3744 5.50456" fill="white"/>
<path d="M12.8397 5.41507L13.3204 5.41142L13.3248 5.65679" fill="white"/>
<path d="M13.5804 5.95165L13.4353 5.49339L13.2006 5.56504" fill="white"/>
<path d="M13.5802 5.95118L13.1892 5.67162L13.3299 5.47053" fill="white"/>
<path d="M13.0157 5.95167L13.4067 5.6721L13.266 5.47102" fill="white"/>
<path d="M13.0153 5.95116L13.1604 5.4929L13.3951 5.56455" fill="white"/>
<path d="M13.2963 3.16309L13.1443 3.61909L13.3763 3.69909" fill="white"/>
<path d="M13.2962 3.16309L13.4482 3.61909L13.2162 3.69909" fill="white"/>
<path d="M13.753 3.49466L13.2724 3.49101L13.268 3.73638" fill="white"/>
<path d="M13.7528 3.4946L13.3661 3.78007L13.2183 3.58415" fill="white"/>
<path d="M12.8399 3.4946L13.2267 3.78007L13.3744 3.58415" fill="white"/>
<path d="M12.8397 3.49466L13.3204 3.49101L13.3248 3.73638" fill="white"/>
<path d="M13.5804 4.03124L13.4353 3.57298L13.2006 3.64463" fill="white"/>
<path d="M13.5802 4.03077L13.1892 3.75121L13.3299 3.55012" fill="white"/>
<path d="M13.0155 4.03126L13.4065 3.75169L13.2658 3.55061" fill="white"/>
<path d="M13.0153 4.03173L13.1604 3.57347L13.3951 3.64512" fill="white"/>
<path d="M13.2963 1.24316L13.1443 1.69916L13.3763 1.77916" fill="white"/>
<path d="M13.2962 1.24316L13.4482 1.69916L13.2162 1.77916" fill="white"/>
<path d="M13.753 1.57474L13.2724 1.57109L13.268 1.81645" fill="white"/>
<path d="M13.7528 1.57468L13.3661 1.86015L13.2183 1.66423" fill="white"/>
<path d="M12.8399 1.57468L13.2267 1.86015L13.3744 1.66423" fill="white"/>
<path d="M12.8397 1.57474L13.3204 1.57109L13.3248 1.81645" fill="white"/>
<path d="M13.5804 2.11132L13.4353 1.65306L13.2006 1.72471" fill="white"/>
<path d="M13.5802 2.11085L13.1892 1.83128L13.3299 1.6302" fill="white"/>
<path d="M13.0152 2.11134L13.4062 1.83177L13.2655 1.63068" fill="white"/>
<path d="M13.0151 2.1118L13.1601 1.65355L13.3948 1.72519" fill="white"/>
<path d="M15.2213 5.0835L15.0693 5.5395L15.3013 5.6195" fill="white"/>
<path d="M15.221 5.0835L15.373 5.5395L15.141 5.6195" fill="white"/>
<path d="M15.6769 5.41458L15.1962 5.41093L15.1918 5.6563" fill="white"/>
<path d="M15.6767 5.41452L15.29 5.69999L15.1422 5.50407" fill="white"/>
<path d="M14.764 5.41501L15.1507 5.70048L15.2985 5.50456" fill="white"/>
<path d="M14.7643 5.41507L15.245 5.41142L15.2494 5.65679" fill="white"/>
<path d="M15.5023 5.95165L15.3572 5.49339L15.1225 5.56504" fill="white"/>
<path d="M15.5026 5.95216L15.1116 5.67259L15.2523 5.4715" fill="white"/>
<path d="M14.9378 5.95167L15.3288 5.6721L15.1882 5.47102" fill="white"/>
<path d="M14.9377 5.95165L15.0827 5.49339L15.3174 5.56504" fill="white"/>
<path d="M15.2213 3.16309L15.0693 3.61909L15.3013 3.69909" fill="white"/>
<path d="M15.221 3.16309L15.373 3.61909L15.141 3.69909" fill="white"/>
<path d="M15.6769 3.49466L15.1962 3.49101L15.1918 3.73638" fill="white"/>
<path d="M15.6767 3.4946L15.29 3.78007L15.1422 3.58415" fill="white"/>
<path d="M14.764 3.4946L15.1507 3.78007L15.2985 3.58415" fill="white"/>
<path d="M14.7643 3.49466L15.245 3.49101L15.2494 3.73638" fill="white"/>
<path d="M15.503 4.03124L15.3579 3.57298L15.1232 3.64463" fill="white"/>
<path d="M15.5029 4.03077L15.1119 3.75121L15.2525 3.55012" fill="white"/>
<path d="M14.9383 4.03175L15.3293 3.75218L15.1886 3.55109" fill="white"/>
<path d="M14.9377 4.03221L15.0827 3.57396L15.3174 3.6456" fill="white"/>
<path d="M15.2213 1.24316L15.0693 1.69916L15.3013 1.77916" fill="white"/>
<path d="M15.221 1.24316L15.373 1.69916L15.141 1.77916" fill="white"/>
<path d="M15.6769 1.57474L15.1962 1.57109L15.1918 1.81645" fill="white"/>
<path d="M15.6767 1.57468L15.29 1.86015L15.1422 1.66423" fill="white"/>
<path d="M14.764 1.57468L15.1507 1.86015L15.2985 1.66423" fill="white"/>
<path d="M14.7646 1.57474L15.2452 1.57109L15.2496 1.81645" fill="white"/>
<path d="M15.503 2.11132L15.3579 1.65306L15.1232 1.72471" fill="white"/>
<path d="M15.5029 2.11085L15.1119 1.83128L15.2525 1.6302" fill="white"/>
<path d="M14.9383 2.11134L15.3293 1.83177L15.1886 1.63068" fill="white"/>
<path d="M14.9377 2.1118L15.0827 1.65355L15.3174 1.72519" fill="white"/>
<path d="M7.53872 5.08301L7.38672 5.53901L7.61872 5.61901" fill="white"/>
<path d="M7.53916 5.08301L7.69116 5.53901L7.45916 5.61901" fill="white"/>
<path d="M7.99546 5.41409L7.5148 5.41044L7.51041 5.65581" fill="white"/>
<path d="M7.996 5.41403L7.60929 5.69951L7.46151 5.50358" fill="white"/>
<path d="M7.08213 5.41501L7.46884 5.70048L7.61661 5.50456" fill="white"/>
<path d="M7.08267 5.41507L7.56332 5.41142L7.56771 5.65679" fill="white"/>
<path d="M7.82112 5.95165L7.67606 5.49339L7.44135 5.56504" fill="white"/>
<path d="M7.82097 5.95216L7.42997 5.67259L7.57064 5.4715" fill="white"/>
<path d="M7.25667 5.95118L7.64767 5.67162L7.507 5.47053" fill="white"/>
<path d="M7.257 5.95165L7.40206 5.49339L7.63678 5.56504" fill="white"/>
<path d="M9.45693 5.08447L9.30493 5.54047L9.53693 5.62047" fill="white"/>
<path d="M9.45664 5.08447L9.60864 5.54047L9.37664 5.62047" fill="white"/>
<path d="M9.91391 5.41604L9.43326 5.4124L9.42887 5.65776" fill="white"/>
<path d="M9.91372 5.41599L9.52701 5.70146L9.37924 5.50553" fill="white"/>
<path d="M9.00107 5.4155L9.38778 5.70097L9.53556 5.50505" fill="white"/>
<path d="M9.00113 5.41556L9.48178 5.41191L9.48617 5.65727" fill="white"/>
<path d="M9.74153 5.95214L9.59647 5.49388L9.36176 5.56553" fill="white"/>
<path d="M9.74138 5.95216L9.35038 5.67259L9.49105 5.4715" fill="white"/>
<path d="M9.17659 5.95216L9.56759 5.67259L9.42692 5.4715" fill="white"/>
<path d="M9.17668 5.95165L9.32174 5.49339L9.55646 5.56504" fill="white"/>
<path d="M9.45693 3.16309L9.30493 3.61909L9.53693 3.69909" fill="white"/>
<path d="M9.45664 3.16309L9.60864 3.61909L9.37664 3.69909" fill="white"/>
<path d="M9.91391 3.49417L9.43326 3.49052L9.42887 3.73589" fill="white"/>
<path d="M9.91372 3.49411L9.52701 3.77958L9.37924 3.58366" fill="white"/>
<path d="M9.00107 3.4946L9.38778 3.78007L9.53556 3.58415" fill="white"/>
<path d="M9.00113 3.49466L9.48178 3.49101L9.48617 3.73638" fill="white"/>
<path d="M9.74153 4.03124L9.59647 3.57298L9.36176 3.64463" fill="white"/>
<path d="M9.74138 4.03077L9.35038 3.75121L9.49105 3.55012" fill="white"/>
<path d="M9.17659 4.03126L9.56759 3.75169L9.42692 3.55061" fill="white"/>
<path d="M9.17668 4.03173L9.32174 3.57347L9.55646 3.64512" fill="white"/>
</g>
<defs>
<clipPath id="clip0_98_2424">
<rect x="0.5" y="0.442383" width="26.6667" height="20" rx="4" fill="white"/>
</clipPath>
</defs>
</svg>
