<svg width="45" height="31" viewBox="0 0 45 31" fill="none" xmlns="http://www.w3.org/2000/svg">
<path fill-rule="evenodd" clip-rule="evenodd" d="M20.2896 11.4466C20.6744 11.4663 21.2171 11.5747 21.523 11.6831C21.819 11.8013 22.2137 12.018 22.7267 12.4416L21.7203 14.0669L21.1974 13.7714C20.9211 13.6138 20.4574 13.4463 20.191 13.4168C19.8555 13.3675 19.5398 13.3971 19.2043 13.5054C18.9083 13.6039 18.5629 13.8207 18.336 14.0374C18.1288 14.2442 17.892 14.589 17.8131 14.8057C17.7144 15.0422 17.6651 15.4066 17.6947 15.712C17.7144 16.1356 17.7835 16.2735 18.0696 16.569C18.2571 16.766 18.5728 16.9729 18.7603 17.0419C18.9477 17.101 19.3326 17.1305 19.599 17.101C19.8752 17.0813 20.3587 16.9335 20.6843 16.7759C21.0099 16.6183 21.3059 16.4804 21.3553 16.4607C21.3947 16.441 21.5822 16.7562 21.7795 17.1404C21.967 17.5344 22.1051 17.8989 22.0854 17.958C22.0558 18.0171 21.7993 18.2043 21.5131 18.3816C21.2171 18.549 20.6448 18.7854 20.2403 18.8938C19.8358 19.0022 19.2734 19.0908 19.007 19.0908C18.7307 19.0908 18.2275 19.0219 17.8723 18.9332C17.5171 18.8544 17.0533 18.6869 16.8363 18.5589C16.6192 18.4308 16.2738 18.1353 16.0666 17.8989C15.8693 17.6625 15.6325 17.2684 15.5536 17.0222C15.4648 16.7759 15.4056 16.3425 15.4056 16.0568C15.4056 15.781 15.4549 15.3081 15.5141 15.0225C15.5733 14.7466 15.7904 14.2048 15.9877 13.8305C16.1949 13.4266 16.5402 12.9637 16.8461 12.6977C17.1224 12.4514 17.5664 12.1362 17.8328 12.0081C18.0992 11.8702 18.6024 11.6831 18.9576 11.5845C19.3819 11.4762 19.8358 11.4269 20.2896 11.4466ZM3.51605 11.6042L3.44698 12.018C3.40752 12.2544 3.30885 12.8848 3.22005 13.4266C3.13124 13.9684 3.00298 14.8944 2.91417 15.4953C2.80564 16.3129 2.78591 16.6971 2.86484 17.0714C2.92404 17.3374 3.11151 17.7807 3.28911 18.0466C3.46672 18.3126 3.76272 18.6081 3.93046 18.6869C4.10806 18.7756 4.25606 18.8741 4.25606 18.9135C4.25606 18.9628 3.69365 18.9825 2.99311 18.9628C2.08536 18.9431 1.68082 18.8938 1.52295 18.7953C1.40455 18.7165 1.25655 18.549 1.19735 18.421C1.13815 18.2831 1.09868 17.0714 1.11841 12.1756L1.39469 11.8899C1.66109 11.6141 1.71042 11.6042 3.51605 11.6042ZM25.667 11.5944L27.9858 11.6535L28.193 12.6878C28.3015 13.2592 28.6172 14.8648 28.8836 16.2637C29.3079 18.4702 29.3474 18.815 29.2191 18.8938C29.1402 18.9529 28.8047 18.9825 28.4791 18.9825C28.1535 18.9726 27.7489 18.9431 27.5911 18.9037C27.3444 18.8544 27.2852 18.7953 27.2655 18.4998C27.2457 18.3126 27.1767 18.0959 27.1175 18.0269C27.0287 17.9383 26.6833 17.8989 25.9433 17.9087C25.3513 17.9087 24.7988 17.9383 24.71 17.9777C24.6212 18.0269 24.4633 18.2437 24.187 18.8938H22.115L22.7465 17.5837C23.0918 16.8744 23.891 15.2293 24.5225 13.9389L25.667 11.5944ZM25.7756 15.2687C25.5486 15.7908 25.3612 16.244 25.3612 16.2735C25.3612 16.3031 25.6966 16.3326 26.1111 16.3326H26.8511C26.8412 15.909 26.7721 15.3278 26.6932 14.7565C26.6143 14.1851 26.5452 13.7025 26.5255 13.6828C26.5057 13.6631 26.4268 13.801 26.338 13.9783C26.2492 14.1654 26.0025 14.7368 25.7756 15.2687ZM31.2122 11.5845L35.4845 11.6535L36.0667 11.949C36.5403 12.1854 36.708 12.3332 36.8955 12.6878C37.0928 13.0622 37.1126 13.2198 37.0731 13.6926C37.0336 14.0078 36.9054 14.4708 36.7771 14.7269C36.6488 14.9831 36.3232 15.4066 35.5832 16.1257L35.7904 16.6478C35.9088 16.9335 36.1653 17.5541 36.7179 18.8938H35.6819C34.7149 18.8938 34.6261 18.8741 34.4189 18.6574C34.3005 18.5293 34.0933 18.1156 33.965 17.7413C33.8368 17.3768 33.669 16.9729 33.5901 16.8448C33.4914 16.6774 33.3632 16.6281 33.0672 16.6281C32.7416 16.6281 32.6528 16.6675 32.5837 16.8448C32.5344 16.9729 32.4357 17.4457 32.3765 17.9087C32.2976 18.4604 32.1989 18.7854 32.0903 18.8643C31.9917 18.9431 31.6266 18.9923 31.1431 18.9923C30.709 18.9923 30.2946 18.9529 30.2255 18.9135C30.117 18.8544 30.1565 18.4505 30.3933 16.8251C30.5511 15.712 30.7781 14.1851 30.8965 13.4266C31.005 12.6681 31.1234 11.9392 31.153 11.8111L31.2122 11.5845ZM33.0277 14.195L32.9685 14.855C34.0637 14.8648 34.2512 14.8156 34.4189 14.658C34.5472 14.5496 34.6755 14.3428 34.7051 14.195C34.7445 14.0472 34.7248 13.8601 34.6755 13.7714C34.6163 13.6926 34.4682 13.5744 34.34 13.5054C34.2117 13.4365 33.9256 13.3872 33.7085 13.3872C33.4914 13.3872 33.2645 13.4168 33.1954 13.4562C33.1362 13.4956 33.0573 13.8305 33.0277 14.195ZM40.6942 11.6239C42.6676 11.6634 42.6873 11.6634 43.2694 11.9589C43.5852 12.1165 43.9799 12.4022 44.1476 12.5893C44.3153 12.7863 44.5225 13.1114 44.6212 13.3281C44.7199 13.5448 44.8284 13.9881 44.8679 14.3132C44.9073 14.6678 44.8876 15.1604 44.8087 15.5445C44.7495 15.8992 44.5521 16.4508 44.3745 16.766C44.2068 17.0813 43.8417 17.5541 43.5753 17.8004C43.299 18.0466 42.786 18.3816 42.4406 18.549C41.7993 18.8347 41.7894 18.8347 39.6977 18.8643C38.0696 18.8938 37.6059 18.8643 37.6059 18.7756C37.6059 18.7066 37.7144 17.8989 37.8427 16.9729C37.9808 16.0568 38.1979 14.5299 38.336 13.5744C38.4742 12.6287 38.6123 11.7914 38.6518 11.7225C38.6912 11.6141 39.0859 11.5944 40.6942 11.6239ZM40.3193 15.249C40.1811 16.1454 40.0726 16.9335 40.0726 17.0025C40.0726 17.0813 40.2305 17.1207 40.5363 17.1207C40.8323 17.1207 41.1777 17.0419 41.454 16.904C41.7302 16.766 42.0065 16.5099 42.194 16.2341C42.3617 15.9977 42.5294 15.5938 42.5689 15.3475C42.6182 15.1013 42.6084 14.7368 42.5492 14.5102C42.49 14.2935 42.3617 13.998 42.2433 13.8502C42.1348 13.6926 41.8782 13.535 41.671 13.4759C41.4737 13.4266 41.158 13.3774 40.9803 13.3774C40.8027 13.3774 40.635 13.4365 40.6153 13.5054C40.5857 13.5744 40.4574 14.3625 40.3193 15.249Z" fill="white" fill-opacity="0.99"/>
<path d="M9.3965 12.4911C9.4557 12.1364 9.52477 11.7917 9.54451 11.7326V11.7227C9.57411 11.634 10.2549 11.6045 12.544 11.6045C14.172 11.6045 15.5041 11.634 15.5041 11.6734C15.4942 11.7227 15.4449 12.0182 15.3659 12.3433C15.2969 12.6684 15.1982 13.0132 15.1489 13.1018C15.0995 13.1905 14.7937 13.5451 14.468 13.8899C14.1424 14.2346 13.3531 15.0523 12.7216 15.7123C12.0803 16.3821 11.5573 16.9633 11.5573 17.0224C11.5573 17.0815 12.0507 17.1308 14.0339 17.1702L14.251 17.712C14.3694 18.0075 14.5667 18.4015 14.9121 18.8941H8.25195L8.33089 18.4803C8.37035 18.2439 8.50849 17.8597 8.62689 17.6135C8.75516 17.3376 9.51491 16.4708 10.6003 15.3478C11.5672 14.343 12.3565 13.4958 12.3467 13.4466C12.3467 13.4072 11.656 13.3776 10.8173 13.3776C9.66291 13.3776 9.28797 13.3481 9.28797 13.2496C9.28797 13.1905 9.3373 12.8457 9.3965 12.4911Z" fill="white" fill-opacity="0.99"/>
<path d="M4.3546 13.7717C4.51247 12.6585 4.6506 11.7227 4.6506 11.6833V11.6734C4.6506 11.634 5.46955 11.6045 8.30132 11.6045V11.8508C8.30132 11.9887 8.16319 13.0132 8.00532 14.1361C7.83758 15.269 7.65998 16.52 7.60078 16.9239C7.55145 17.3278 7.47251 17.7514 7.44291 17.8597C7.38371 18.0469 7.32451 18.0567 6.18983 17.9976C5.35115 17.9582 4.89727 17.8991 4.6802 17.7809C4.5026 17.6923 4.28553 17.4755 4.2066 17.3179C4.11779 17.1505 4.05859 16.7564 4.05859 16.4018C4.05859 16.0669 4.18686 14.8848 4.3546 13.7717Z" fill="#FF4519" fill-opacity="0.99"/>
</svg>
