<svg width="26" height="24" viewBox="0 0 26 24" fill="none" xmlns="http://www.w3.org/2000/svg">
<g clip-path="url(#clip0_272_554)">
<path fill-rule="evenodd" clip-rule="evenodd" d="M5.07832 0.00947266L20.8752 -0.00146484L21.3439 0.11416C21.6018 0.178223 21.9502 0.286035 22.1174 0.354785C22.2846 0.423535 22.5596 0.559473 22.7268 0.65791C22.8939 0.756348 23.1736 0.954785 23.3486 1.09854C23.5221 1.24229 23.7814 1.50166 23.9236 1.67666C24.0674 1.8501 24.2643 2.12979 24.3643 2.29697C24.4643 2.46416 24.6018 2.73916 24.6689 2.90635C24.7377 3.07354 24.8455 3.42666 25.0236 4.17197V11.9532C25.0236 19.6517 25.0221 19.7392 24.9268 20.2157C24.8721 20.4798 24.7611 20.8642 24.6783 21.0704C24.5939 21.2767 24.4033 21.6345 24.2533 21.8673C24.1018 22.0985 23.8299 22.4392 23.6455 22.622C23.4627 22.8063 23.133 23.0735 22.9143 23.2173C22.6955 23.361 22.358 23.5438 22.1643 23.6235C21.9705 23.7048 21.6018 23.822 20.8752 24.0017H5.17207L4.70332 23.886C4.44551 23.822 4.09707 23.7142 3.92988 23.6454C3.7627 23.5767 3.4877 23.4407 3.32051 23.3407C3.15332 23.2407 2.87363 23.0438 2.69863 22.9001C2.5252 22.7579 2.26582 22.4985 2.12363 22.3251C1.97988 22.1501 1.78145 21.8704 1.68301 21.7032C1.58301 21.536 1.4377 21.2407 1.36113 21.047C1.28457 20.8532 1.1752 20.4845 1.02051 19.7579L1.04707 3.96104L1.17051 3.51572C1.2377 3.27041 1.36895 2.9126 1.46113 2.71885C1.55332 2.5251 1.71895 2.22979 1.82832 2.0626C1.9377 1.89541 2.19707 1.58916 2.40488 1.38135C2.6127 1.17354 2.91895 0.91416 3.08613 0.804785C3.25332 0.69541 3.54863 0.529785 3.74238 0.437598C3.93613 0.34541 4.31582 0.211035 4.58613 0.13916L5.07832 0.00947266ZM6.65957 8.2626C6.6002 8.32041 6.52051 8.43603 6.48301 8.52041C6.4252 8.64697 6.41426 9.06416 6.41426 11.0751C6.4127 13.2735 6.42051 13.5063 6.50176 13.8282C6.5502 14.022 6.63301 14.2642 6.68457 14.3673C6.73613 14.4704 6.86582 14.6704 6.97207 14.8126C7.07988 14.9548 7.26582 15.1517 7.3877 15.2501C7.50957 15.3501 7.77832 15.511 7.98457 15.6079C8.19082 15.7063 8.50645 15.8235 8.6877 15.8673C8.90957 15.922 9.19863 15.947 9.57832 15.9454C9.99395 15.9438 10.2393 15.9173 10.5158 15.8438C10.7221 15.7892 11.058 15.6563 11.2643 15.5485C11.4924 15.4282 11.7471 15.2423 11.9205 15.0704C12.0861 14.9063 12.2752 14.6532 12.3768 14.461C12.4721 14.2813 12.5814 13.9954 12.6221 13.8282C12.6814 13.5735 12.6939 13.122 12.6955 11.0985C12.6955 9.18291 12.683 8.63916 12.633 8.52041C12.5986 8.43603 12.5033 8.30947 12.4221 8.23916C12.3408 8.16728 12.1908 8.0876 12.0877 8.06104C11.9564 8.02666 11.8439 8.02822 11.7018 8.06572C11.5908 8.09385 11.4314 8.16885 11.3471 8.23135C11.2643 8.29385 11.1658 8.40166 11.1299 8.47353C11.0752 8.57822 11.0596 9.05791 11.0439 11.0392C11.0283 13.1751 11.0158 13.5032 10.9471 13.6876C10.9049 13.8032 10.7893 13.9907 10.6924 14.1048C10.5955 14.2173 10.4424 14.347 10.3518 14.3923C10.2611 14.4376 10.0611 14.5001 9.90645 14.5313C9.75176 14.5626 9.51895 14.5767 9.39082 14.561C9.26113 14.5454 9.0502 14.497 8.92207 14.4532C8.76895 14.4017 8.61113 14.2954 8.46426 14.147C8.30488 13.986 8.22207 13.8532 8.17207 13.6767C8.1127 13.472 8.1002 13.0423 8.10176 11.1329C8.10176 9.75947 8.08301 8.76572 8.05488 8.66103C8.02832 8.56416 7.93926 8.40947 7.85488 8.31728C7.75488 8.20478 7.6252 8.12666 7.46895 8.08135C7.33926 8.04541 7.2127 8.01572 7.1877 8.01728C7.16113 8.01885 7.05645 8.0501 6.95332 8.0876C6.8502 8.1251 6.71738 8.20478 6.65957 8.2626ZM14.3455 8.31104C14.2611 8.39385 14.1721 8.54072 14.1471 8.6376C14.1174 8.75166 14.1189 8.87353 14.1502 8.98916C14.1752 9.08447 14.233 9.20791 14.2783 9.26103C14.3236 9.31416 14.4221 9.39853 14.4986 9.44853C14.6268 9.53291 14.7533 9.54072 16.2252 9.5626L17.8158 9.58603C14.8924 13.1829 14.0143 14.3001 13.9783 14.3907C13.9424 14.4813 13.9127 14.6657 13.9127 14.8017C13.9143 14.947 13.9502 15.1188 14.0033 15.2235C14.0518 15.3188 14.1518 15.4595 14.2252 15.5345C14.2986 15.6095 14.4549 15.7142 14.5705 15.7688C14.7752 15.8642 14.8439 15.8673 16.9689 15.8673C19.1158 15.8673 19.1596 15.8657 19.2893 15.7688C19.3627 15.7157 19.4705 15.5985 19.5283 15.511C19.5939 15.4142 19.6346 15.2829 19.6346 15.1767C19.633 15.0798 19.6049 14.9313 19.5721 14.8485C19.5377 14.7642 19.4283 14.6329 19.3299 14.5548L19.1486 14.4142L15.6689 14.3673C18.5971 10.7704 19.4783 9.64697 19.5174 9.55166C19.5549 9.45478 19.5861 9.2751 19.5846 9.15322C19.5846 9.02978 19.5455 8.84541 19.5002 8.74228C19.4533 8.63916 19.3221 8.4751 19.208 8.37666C19.0939 8.27978 18.8939 8.16885 18.7658 8.12978C18.5768 8.0751 18.1705 8.0626 16.633 8.06572C15.4971 8.06728 14.6877 8.0876 14.6174 8.11572C14.5533 8.14072 14.4314 8.22822 14.3455 8.31104Z" fill="white"/>
</g>
<defs>
<clipPath id="clip0_272_554">
<rect x="0.976807" width="24.0469" height="24" rx="12" fill="white"/>
</clipPath>
</defs>
</svg>
