<svg width="45" height="31" viewBox="0 0 45 31" fill="none" xmlns="http://www.w3.org/2000/svg">
<path d="M30.4675 10.2796C29.9132 10.0597 29.0342 9.81689 27.9472 9.81689C25.1723 9.81689 23.2182 11.2966 23.2062 13.4122C23.1832 14.973 24.6053 15.84 25.6689 16.3604C26.756 16.8922 27.1256 17.2393 27.1256 17.7133C27.1145 18.4414 26.2471 18.777 25.4381 18.777C24.3163 18.777 23.7152 18.6039 22.8017 18.1989L22.4317 18.0253L22.0384 20.4647C22.6975 20.765 23.9117 21.0314 25.1723 21.0431C28.1207 21.0431 30.0402 19.5863 30.0629 17.3318C30.0741 16.0947 29.3232 15.1468 27.7043 14.3722C26.7215 13.875 26.1196 13.5397 26.1196 13.0309C26.1311 12.5684 26.6287 12.0947 27.7381 12.0947C28.6516 12.0715 29.3227 12.2911 29.8312 12.5108L30.0853 12.6262L30.4675 10.2796Z" fill="white"/>
<path d="M20.2812 20.8811H17.4713L19.2288 10.0139H22.0386L20.2812 20.8811Z" fill="white"/>
<path fill-rule="evenodd" clip-rule="evenodd" d="M37.6706 10.0139H35.4971C34.8269 10.0139 34.3176 10.2103 34.0285 10.9155L29.8547 20.881H32.803C32.803 20.881 33.2884 19.5397 33.3928 19.2508H37.0005C37.0812 19.6324 37.3358 20.881 37.3358 20.881H39.9375L37.6706 10.0139ZM34.2021 17.0313C34.4335 16.4069 35.3239 13.9907 35.3239 13.9907C35.3193 14 35.3555 13.8996 35.4095 13.7499L35.4101 13.7481L35.4106 13.7469C35.4912 13.5233 35.611 13.1914 35.6936 12.9503L35.89 13.8867C35.89 13.8867 36.4221 16.4879 36.5377 17.0313H34.2021Z" fill="white"/>
<path d="M15.1243 10.0139L12.3725 17.4243L12.0718 15.9214L12.0715 15.9205L11.089 10.9274C10.9272 10.2333 10.4299 10.0368 9.81715 10.0139H5.29625L5.25 10.2335C6.35263 10.5154 7.33883 10.9217 8.20295 11.4269L10.7074 20.8696H13.6789L18.0956 10.0139H15.1243Z" fill="white"/>
</svg>
