<svg width="24" height="25" viewBox="0 0 24 25" fill="none" xmlns="http://www.w3.org/2000/svg">
<path d="M22.7747 6.81857C22.5154 5.85466 21.7554 5.09482 20.7916 4.83527C19.0309 4.35352 11.988 4.35352 11.988 4.35352C11.988 4.35352 4.94536 4.35352 3.18466 4.817C2.23943 5.07628 1.46091 5.8548 1.20163 6.81857C0.738281 8.57913 0.738281 12.2303 0.738281 12.2303C0.738281 12.2303 0.738281 15.8999 1.20163 17.642C1.46118 18.6058 2.22089 19.3656 3.1848 19.6252C4.9639 20.1071 11.9883 20.1071 11.9883 20.1071C11.9883 20.1071 19.0309 20.1071 20.7916 19.6436C21.7555 19.3842 22.5154 18.6243 22.7749 17.6606C23.2381 15.8999 23.2381 12.2488 23.2381 12.2488C23.2381 12.2488 23.2567 8.57913 22.7747 6.81857ZM9.7457 15.6034V8.85722L15.6022 12.2303L9.7457 15.6034Z" fill="white"/>
</svg>
