<svg width="24" height="25" viewBox="0 0 24 25" fill="none" xmlns="http://www.w3.org/2000/svg">
<path d="M0 24.4424L1.687 18.2794C0.646 16.4754 0.099 14.4304 0.1 12.3334C0.103 5.77738 5.438 0.442383 11.993 0.442383C15.174 0.443383 18.16 1.68238 20.406 3.93038C22.651 6.17838 23.887 9.16638 23.886 12.3444C23.883 18.9014 18.548 24.2364 11.993 24.2364C10.003 24.2354 8.042 23.7364 6.305 22.7884L0 24.4424ZM6.597 20.6354C8.273 21.6304 9.873 22.2264 11.989 22.2274C17.437 22.2274 21.875 17.7934 21.878 12.3424C21.88 6.88038 17.463 2.45238 11.997 2.45038C6.545 2.45038 2.11 6.88438 2.108 12.3344C2.107 14.5594 2.759 16.2254 3.854 17.9684L2.855 21.6164L6.597 20.6354ZM17.984 15.1714C17.91 15.0474 17.712 14.9734 17.414 14.8244C17.117 14.6754 15.656 13.9564 15.383 13.8574C15.111 13.7584 14.913 13.7084 14.714 14.0064C14.516 14.3034 13.946 14.9734 13.773 15.1714C13.6 15.3694 13.426 15.3944 13.129 15.2454C12.832 15.0964 11.874 14.7834 10.739 13.7704C9.856 12.9824 9.259 12.0094 9.086 11.7114C8.913 11.4144 9.068 11.2534 9.216 11.1054C9.35 10.9724 9.513 10.7584 9.662 10.5844C9.813 10.4124 9.862 10.2884 9.962 10.0894C10.061 9.89138 10.012 9.71738 9.937 9.56838C9.862 9.42038 9.268 7.95738 9.021 7.36238C8.779 6.78338 8.534 6.86138 8.352 6.85238L7.782 6.84238C7.584 6.84238 7.262 6.91638 6.99 7.21438C6.718 7.51238 5.95 8.23038 5.95 9.69338C5.95 11.1564 7.015 12.5694 7.163 12.7674C7.312 12.9654 9.258 15.9674 12.239 17.2544C12.948 17.5604 13.502 17.7434 13.933 17.8804C14.645 18.1064 15.293 18.0744 15.805 17.9984C16.376 17.9134 17.563 17.2794 17.811 16.5854C18.059 15.8904 18.059 15.2954 17.984 15.1714Z" fill="white"/>
</svg>
